<svg xmlns="http://www.w3.org/2000/svg" width="1024" height="1024" viewBox="0 0 1024 1024" version="1.1"><path d="M 495.132 91.100 C 417.060 95.810, 331.223 127.885, 266.500 176.533 C 208.703 219.976, 160.784 279.057, 131.623 342.827 C 105.622 399.688, 92.996 458.775, 93.016 523.500 C 93.029 566.590, 98.646 605.681, 110.689 646.500 C 125.953 698.234, 155.384 753.037, 190.894 795.846 C 204.332 812.046, 233.246 840.968, 247.821 852.790 C 294.750 890.854, 350.725 919.269, 411.730 935.996 C 501.854 960.707, 598.879 953.792, 688 916.305 C 761.964 885.194, 825.856 833.277, 872.521 766.369 C 895.914 732.829, 915.837 691.739, 929.430 649 C 942.177 608.920, 949.966 553.109, 948.590 511.705 C 945.887 430.356, 920.407 349.986, 876.755 285.116 C 840.292 230.929, 794.301 186.146, 742.628 154.509 C 717.345 139.030, 678.716 120.911, 653.500 112.704 C 610.594 98.739, 580.945 93.084, 539.583 90.978 C 519.226 89.941, 514.106 89.955, 495.132 91.100 M 495 92.590 C 493.075 92.812, 486.325 93.480, 480 94.074 C 445.805 97.284, 401.908 108.315, 364.500 123.097 C 348.841 129.285, 316.802 145.353, 301.169 154.858 C 203.934 213.979, 133.812 309.190, 106.999 418.496 C 97.908 455.556, 94.576 483.804, 94.612 523.500 C 94.647 561.738, 98.038 589.941, 106.991 626.464 C 114.418 656.762, 122.221 678.207, 136.658 708 C 162.457 761.242, 195.990 805.577, 238.948 843.243 C 314.652 909.619, 419.658 949, 520.945 949 C 585.532 949, 653.372 932.832, 712.110 903.440 C 732.612 893.182, 742.393 887.470, 761.080 874.843 C 835.428 824.608, 889.710 754.545, 921.334 668 C 932.718 636.845, 940.734 601.767, 945.213 563.500 C 947.190 546.606, 946.843 491.844, 944.659 476 C 936.583 417.425, 923.271 373.963, 898.410 325 C 870.504 270.037, 824.461 215.411, 774.500 177.986 C 714.838 133.295, 642.487 104.043, 569 94.900 C 553.367 92.955, 504.939 91.443, 495 92.590 M 493 134.655 C 432.014 140.500, 383.679 155.540, 332 184.754 C 294.117 206.169, 257.794 236.409, 230.059 269.623 C 178.238 331.680, 148.482 398.777, 138.536 476 C 133.750 513.152, 136.172 563.650, 144.626 603 C 158.979 669.812, 190.249 730.778, 237.251 783.592 C 276.899 828.142, 333.032 864.700, 394.272 885.854 C 438.751 901.218, 473.926 907.183, 520.500 907.258 C 564.918 907.330, 603.069 901.342, 643 888.031 C 679.766 875.776, 726.817 850.831, 755.965 828.142 C 780.085 809.368, 806.829 782.018, 826.378 756.135 C 870.174 698.150, 894.146 636.587, 903.142 559 C 904.836 544.389, 904.829 497.357, 903.130 482.500 C 895.364 414.571, 871.706 351.547, 834.625 300 C 807.423 262.185, 777.148 231.393, 742.500 206.301 C 717.115 187.916, 683.301 169.713, 654 158.656 C 607.754 141.206, 567.154 133.872, 518.500 134.181 C 506.400 134.257, 494.925 134.471, 493 134.655 M 501.447 136.014 C 483.312 136.855, 480.426 137.172, 459.500 140.631 C 394.355 151.398, 331.840 179.786, 279.823 222.224 C 223.663 268.042, 178.979 333.788, 156.110 404.250 C 147.936 429.435, 141.498 460.562, 138.910 487.400 C 137.391 503.164, 138.278 551.295, 140.406 568.500 C 150.155 647.332, 183.101 719.929, 236.980 781.299 C 257.872 805.096, 289.160 830.998, 318.112 848.465 C 329.852 855.547, 356.987 869.288, 371.500 875.500 C 387.938 882.536, 421.642 893.443, 437.500 896.859 C 497.338 909.748, 559.251 908.890, 615 894.399 C 634.743 889.267, 643.742 886.394, 660.500 879.876 C 717.295 857.783, 767.743 822.880, 805.353 779.658 C 830.074 751.247, 850.698 720.642, 863.748 693 C 885.528 646.869, 896.109 608.804, 901.555 557 C 904.017 533.579, 903.117 491.475, 899.664 468.500 C 894.595 434.779, 888.132 410.594, 875.745 379 C 856.692 330.405, 826.102 284.616, 786.661 245.654 C 746.877 206.354, 700.464 177.201, 646 157.302 C 601.754 141.136, 551.293 133.705, 501.447 136.014 M 497 168.995 C 462.164 171.130, 418.022 181.949, 384 196.693 C 324.519 222.469, 267.692 269.688, 231.391 323.500 C 226.939 330.100, 220.462 340.209, 216.999 345.964 C 210.472 356.808, 196.646 384.244, 195.058 389.500 C 194.560 391.150, 191.867 398.939, 189.074 406.809 C 169.861 460.946, 164.928 525.112, 175.436 584.219 C 184.333 634.270, 202.716 679.222, 231.781 722 C 249.009 747.357, 273.119 774.372, 294 791.718 C 314.406 808.669, 342.341 826.536, 366.335 837.984 C 415.924 861.643, 458.783 872.112, 512.534 873.697 C 583.701 875.795, 654.597 855.677, 714.183 816.475 C 767.058 781.688, 812.185 728.573, 839.433 669.053 C 859.905 624.335, 871 573.111, 871 523.311 C 871 487.901, 868.320 465.955, 860.040 433.563 C 847.534 384.637, 823.489 337.982, 789.915 297.500 C 778.708 283.987, 749.681 255.118, 738 245.869 C 683.970 203.083, 623.962 177.702, 560 170.583 C 542.685 168.656, 514.244 167.939, 497 168.995 M 495 170.655 C 464.229 173.604, 436.302 179.524, 408.732 188.943 C 350.745 208.753, 297.071 245.624, 255.074 294.500 C 230.092 323.573, 207.119 362.061, 194.491 396 C 183.690 425.026, 179.312 442.469, 174.283 476.500 C 171.697 494.001, 171.735 551.427, 174.344 568 C 178.965 597.350, 185.155 622.365, 193.591 645.771 C 208.548 687.267, 237.831 733.722, 270.569 767.887 C 321.842 821.393, 400.202 860.116, 476.153 869.476 C 562.077 880.066, 645.593 860.500, 716.487 813.170 C 782.152 769.332, 833.204 698.654, 855.602 620.576 C 871.056 566.705, 873.823 508.442, 863.418 456 C 851.803 397.459, 829.510 349.264, 792.723 303.166 C 779.694 286.839, 748.733 255.936, 734 244.553 C 679.337 202.318, 618.576 177.776, 553.089 171.481 C 539.520 170.177, 505.099 169.688, 495 170.655 M 490.474 270.750 C 490.862 272.262, 491.412 284.220, 491.695 297.322 L 492.210 321.143 409.355 320.714 C 332.374 320.315, 318.836 319.880, 308.225 317.467 C 306.175 317, 306.014 317.224, 306.606 319.725 C 308.966 329.704, 318.950 346.062, 328.593 355.750 L 334.815 362 531.407 362 L 728 362 728 341.500 L 728 321 632 321 L 536 321 536.035 312.250 C 536.079 301.215, 538.228 288.974, 540.923 284.406 C 543.541 279.968, 543.522 279.348, 540.750 278.737 C 539.513 278.464, 533.874 277.041, 528.220 275.575 C 518.235 272.985, 493.891 268.016, 491.133 268.005 C 490.137 268.001, 489.959 268.746, 490.474 270.750 M 492.424 272.750 C 492.785 274.262, 493.347 285.633, 493.671 298.019 C 494.191 317.835, 494.072 320.696, 492.675 321.855 C 490.335 323.797, 334.190 322.796, 319 320.742 C 313.225 319.961, 308.358 319.429, 308.184 319.560 C 308.010 319.691, 309.231 323.002, 310.897 326.917 C 314.994 336.546, 321.832 346.887, 328.761 353.931 L 334.500 359.767 360.930 360.473 C 375.467 360.862, 463.555 361.044, 556.680 360.877 L 726 360.575 726 341.788 L 726 323 631.122 323 C 547.144 323, 536.099 322.824, 534.974 321.469 C 532.255 318.192, 535.799 289.008, 539.625 283.168 C 540.469 281.880, 541.011 280.705, 540.830 280.558 C 539.351 279.352, 497.186 270, 493.227 270 C 492.141 270, 491.935 270.705, 492.424 272.750 M 418.500 391.051 C 385.080 402.094, 339.105 412.460, 310.667 415.363 C 298.656 416.589, 298.503 416.636, 298.740 419.053 C 299.111 422.836, 309.255 442.662, 314.982 450.798 C 318.668 456.034, 320.598 457.962, 321.810 457.621 C 322.739 457.360, 325.525 456.847, 328 456.482 C 338.513 454.929, 375.381 445.213, 404.500 436.321 C 414.400 433.298, 423.361 430.586, 424.414 430.293 C 426.286 429.773, 426.314 430.746, 425.661 474.630 C 424.819 531.281, 423.255 547.584, 415.797 577.500 C 410.838 597.390, 405.622 611.735, 397.254 628.500 C 378.424 666.225, 354.407 691.593, 322.961 706.971 C 317.305 709.737, 312.101 712, 311.398 712 C 308.189 712, 309.370 714.729, 316.284 723.285 C 327.009 736.558, 335.935 746, 337.756 746 C 341.747 746, 362.022 733.647, 377 722.090 C 429.924 681.256, 464.191 606.001, 468.566 521 C 468.863 515.225, 469.328 509.038, 469.599 507.250 L 470.091 504 481.042 504 L 491.993 504 492.246 638.250 L 492.500 772.500 514.250 772.770 L 536 773.039 536 638.520 L 536 504 582.102 504 L 628.204 504 627.734 548.250 C 627.318 587.316, 627.006 594.140, 625.077 606.500 C 615.850 665.590, 593.917 700.989, 554.172 720.932 C 548.527 723.765, 547.988 724.290, 549.172 725.796 C 551.421 728.656, 573.201 754.384, 575.067 756.385 C 576.782 758.223, 576.994 758.177, 583.663 754.501 C 613.295 738.167, 639.011 706.641, 654.362 667.828 C 661.619 649.481, 667.492 620.751, 669.965 591.500 C 670.533 584.774, 670.984 546.646, 670.990 504.750 L 671 430 681.340 430 C 687.027 430, 699.852 429.704, 709.840 429.342 L 728 428.684 728 409 L 728 389.315 710.750 388.660 C 701.263 388.301, 633.650 388.022, 560.500 388.041 L 427.500 388.076 418.500 391.051 M 413.500 394.153 C 385.314 403.432, 340.749 413.558, 314.733 416.596 C 297.560 418.601, 298.495 416.909, 306.065 432.276 C 311.815 443.948, 319.639 456, 321.467 456 C 328.291 456, 378.445 442.908, 413 432.105 C 419.875 429.956, 425.837 428.405, 426.250 428.658 C 426.663 428.911, 427 448.144, 427 471.398 C 427 527.175, 425.033 548.054, 416.675 581 C 401.360 641.373, 364.004 691.122, 319.441 710.494 C 315.288 712.300, 311.698 713.968, 311.465 714.202 C 310.861 714.805, 322.686 729.410, 330.738 738.006 L 337.540 745.267 342.980 742.510 C 358.025 734.886, 377.784 720.818, 391.230 708.156 C 404.860 695.321, 419.712 675.675, 430.282 656.500 C 452.069 616.976, 463.774 572.359, 467.612 514.207 C 468.168 505.784, 468.617 503.740, 470.080 502.957 C 472.727 501.540, 491.339 501.739, 492.800 503.200 C 493.721 504.121, 494 535.356, 494 637.700 L 494 771 514.496 771 L 534.993 771 535.246 636.750 L 535.500 502.500 581.385 502.240 C 614.433 502.052, 627.652 502.297, 628.635 503.112 C 629.735 504.025, 629.993 510.106, 629.964 534.372 C 629.904 583.797, 628.067 605.744, 621.878 631 C 611.276 674.257, 589.389 704.697, 557.250 720.881 C 553.813 722.612, 551 724.486, 551 725.046 C 551 725.605, 556.014 732.011, 562.141 739.281 C 578.442 758.622, 575.738 756.858, 583.170 753.002 C 597.132 745.760, 611.061 733.866, 623.303 718.734 C 645.545 691.241, 659.234 658.740, 664.948 619.856 C 668.997 592.301, 669.293 585.520, 669.901 506.500 L 670.500 428.500 698.250 428.234 L 726 427.968 726 408.984 L 726 390 575.750 390.102 L 425.500 390.203 413.500 394.153 M 469.443 429.288 C 469.171 429.997, 469.073 437.985, 469.224 447.038 L 469.500 463.500 549.500 463.500 L 629.500 463.500 629.775 447.133 C 629.964 435.912, 629.690 430.331, 628.903 429.383 C 627.257 427.399, 470.203 427.306, 469.443 429.288 M 485.750 429.744 L 470 430.051 470 445.883 L 470 461.715 476.147 462.358 C 479.527 462.711, 515.088 463, 555.171 463 L 628.048 463 627.774 446.250 L 627.500 429.500 564.500 429.469 C 529.850 429.452, 494.413 429.576, 485.750 429.744 M 557 579.847 L 557 628 579 628 L 601 628 601 580.500 L 601 533 590.250 532.995 C 584.337 532.993, 574.438 532.699, 568.250 532.343 L 557 531.694 557 579.847 M 559 580 L 559 626 578.841 626 L 598.682 626 599.341 604.839 C 599.703 593.200, 600 572.500, 600 558.839 L 600 534 579.500 534 L 559 534 559 580 M 701.075 652.750 C 690.734 684.389, 669.830 709.271, 642.993 721.886 L 634.997 725.644 642.650 734.572 C 646.859 739.482, 653.007 746.987, 656.313 751.250 C 659.619 755.513, 662.747 759, 663.266 759 C 665.637 759, 679.392 750.846, 688 744.338 C 706.822 730.108, 725.787 708.005, 739.034 684.862 C 744.258 675.735, 745.166 673.521, 743.968 672.826 C 730.298 664.898, 721.804 659.387, 713.945 653.345 C 708.689 649.305, 704.140 646, 703.835 646 C 703.531 646, 702.289 649.038, 701.075 652.750 M 702.065 654.824 C 690.955 686.191, 670.236 710.540, 643.992 723.074 L 637.229 726.304 644.251 734.402 C 648.112 738.856, 653.798 745.760, 656.886 749.744 C 659.974 753.729, 663.175 756.988, 664 756.987 C 666.302 756.984, 679.993 748.867, 688.696 742.345 C 699.504 734.245, 711.313 722.091, 721.314 708.774 C 729.532 697.831, 743.006 676.523, 742.988 674.500 C 742.983 673.950, 739.576 671.714, 735.418 669.530 C 731.260 667.347, 722.873 661.820, 716.779 657.247 C 710.686 652.674, 705.414 648.756, 705.065 648.540 C 704.715 648.324, 703.365 651.152, 702.065 654.824" stroke="none" fill="#adadab" fill-rule="evenodd"/><path d="M 495 92.590 C 493.075 92.812, 486.325 93.480, 480 94.074 C 445.805 97.284, 401.908 108.315, 364.500 123.097 C 348.841 129.285, 316.802 145.353, 301.169 154.858 C 203.934 213.979, 133.812 309.190, 106.999 418.496 C 97.908 455.556, 94.576 483.804, 94.612 523.500 C 94.647 561.738, 98.038 589.941, 106.991 626.464 C 114.418 656.762, 122.221 678.207, 136.658 708 C 162.457 761.242, 195.990 805.577, 238.948 843.243 C 314.652 909.619, 419.658 949, 520.945 949 C 585.532 949, 653.372 932.832, 712.110 903.440 C 732.612 893.182, 742.393 887.470, 761.080 874.843 C 835.428 824.608, 889.710 754.545, 921.334 668 C 932.718 636.845, 940.734 601.767, 945.213 563.500 C 947.190 546.606, 946.843 491.844, 944.659 476 C 936.583 417.425, 923.271 373.963, 898.410 325 C 870.504 270.037, 824.461 215.411, 774.500 177.986 C 714.838 133.295, 642.487 104.043, 569 94.900 C 553.367 92.955, 504.939 91.443, 495 92.590 M 493 134.655 C 432.014 140.500, 383.679 155.540, 332 184.754 C 294.117 206.169, 257.794 236.409, 230.059 269.623 C 178.238 331.680, 148.482 398.777, 138.536 476 C 133.750 513.152, 136.172 563.650, 144.626 603 C 158.979 669.812, 190.249 730.778, 237.251 783.592 C 276.899 828.142, 333.032 864.700, 394.272 885.854 C 438.751 901.218, 473.926 907.183, 520.500 907.258 C 564.918 907.330, 603.069 901.342, 643 888.031 C 679.766 875.776, 726.817 850.831, 755.965 828.142 C 780.085 809.368, 806.829 782.018, 826.378 756.135 C 870.174 698.150, 894.146 636.587, 903.142 559 C 904.836 544.389, 904.829 497.357, 903.130 482.500 C 895.364 414.571, 871.706 351.547, 834.625 300 C 807.423 262.185, 777.148 231.393, 742.500 206.301 C 717.115 187.916, 683.301 169.713, 654 158.656 C 607.754 141.206, 567.154 133.872, 518.500 134.181 C 506.400 134.257, 494.925 134.471, 493 134.655 M 495 170.655 C 464.229 173.604, 436.302 179.524, 408.732 188.943 C 350.745 208.753, 297.071 245.624, 255.074 294.500 C 230.092 323.573, 207.119 362.061, 194.491 396 C 183.690 425.026, 179.312 442.469, 174.283 476.500 C 171.697 494.001, 171.735 551.427, 174.344 568 C 178.965 597.350, 185.155 622.365, 193.591 645.771 C 208.548 687.267, 237.831 733.722, 270.569 767.887 C 321.842 821.393, 400.202 860.116, 476.153 869.476 C 562.077 880.066, 645.593 860.500, 716.487 813.170 C 782.152 769.332, 833.204 698.654, 855.602 620.576 C 871.056 566.705, 873.823 508.442, 863.418 456 C 851.803 397.459, 829.510 349.264, 792.723 303.166 C 779.694 286.839, 748.733 255.936, 734 244.553 C 679.337 202.318, 618.576 177.776, 553.089 171.481 C 539.520 170.177, 505.099 169.688, 495 170.655 M 490.474 270.750 C 490.862 272.262, 491.412 284.220, 491.695 297.322 L 492.210 321.143 409.355 320.714 C 332.374 320.315, 318.836 319.880, 308.225 317.467 C 306.175 317, 306.014 317.224, 306.606 319.725 C 308.966 329.704, 318.950 346.062, 328.593 355.750 L 334.815 362 531.407 362 L 728 362 728 341.500 L 728 321 632 321 L 536 321 536.035 312.250 C 536.079 301.215, 538.228 288.974, 540.923 284.406 C 543.541 279.968, 543.522 279.348, 540.750 278.737 C 539.513 278.464, 533.874 277.041, 528.220 275.575 C 518.235 272.985, 493.891 268.016, 491.133 268.005 C 490.137 268.001, 489.959 268.746, 490.474 270.750 M 418.500 391.051 C 385.080 402.094, 339.105 412.460, 310.667 415.363 C 298.656 416.589, 298.503 416.636, 298.740 419.053 C 299.111 422.836, 309.255 442.662, 314.982 450.798 C 318.668 456.034, 320.598 457.962, 321.810 457.621 C 322.739 457.360, 325.525 456.847, 328 456.482 C 338.513 454.929, 375.381 445.213, 404.500 436.321 C 414.400 433.298, 423.361 430.586, 424.414 430.293 C 426.286 429.773, 426.314 430.746, 425.661 474.630 C 424.819 531.281, 423.255 547.584, 415.797 577.500 C 410.838 597.390, 405.622 611.735, 397.254 628.500 C 378.424 666.225, 354.407 691.593, 322.961 706.971 C 317.305 709.737, 312.101 712, 311.398 712 C 308.189 712, 309.370 714.729, 316.284 723.285 C 327.009 736.558, 335.935 746, 337.756 746 C 341.747 746, 362.022 733.647, 377 722.090 C 429.924 681.256, 464.191 606.001, 468.566 521 C 468.863 515.225, 469.328 509.038, 469.599 507.250 L 470.091 504 481.042 504 L 491.993 504 492.246 638.250 L 492.500 772.500 514.250 772.770 L 536 773.039 536 638.520 L 536 504 582.102 504 L 628.204 504 627.734 548.250 C 627.318 587.316, 627.006 594.140, 625.077 606.500 C 615.850 665.590, 593.917 700.989, 554.172 720.932 C 548.527 723.765, 547.988 724.290, 549.172 725.796 C 551.421 728.656, 573.201 754.384, 575.067 756.385 C 576.782 758.223, 576.994 758.177, 583.663 754.501 C 613.295 738.167, 639.011 706.641, 654.362 667.828 C 661.619 649.481, 667.492 620.751, 669.965 591.500 C 670.533 584.774, 670.984 546.646, 670.990 504.750 L 671 430 681.340 430 C 687.027 430, 699.852 429.704, 709.840 429.342 L 728 428.684 728 409 L 728 389.315 710.750 388.660 C 701.263 388.301, 633.650 388.022, 560.500 388.041 L 427.500 388.076 418.500 391.051 M 485.750 429.744 L 470 430.051 470 445.883 L 470 461.715 476.147 462.358 C 479.527 462.711, 515.088 463, 555.171 463 L 628.048 463 627.774 446.250 L 627.500 429.500 564.500 429.469 C 529.850 429.452, 494.413 429.576, 485.750 429.744 M 557 579.847 L 557 628 579 628 L 601 628 601 580.500 L 601 533 590.250 532.995 C 584.337 532.993, 574.438 532.699, 568.250 532.343 L 557 531.694 557 579.847 M 701.075 652.750 C 690.734 684.389, 669.830 709.271, 642.993 721.886 L 634.997 725.644 642.650 734.572 C 646.859 739.482, 653.007 746.987, 656.313 751.250 C 659.619 755.513, 662.747 759, 663.266 759 C 665.637 759, 679.392 750.846, 688 744.338 C 706.822 730.108, 725.787 708.005, 739.034 684.862 C 744.258 675.735, 745.166 673.521, 743.968 672.826 C 730.298 664.898, 721.804 659.387, 713.945 653.345 C 708.689 649.305, 704.140 646, 703.835 646 C 703.531 646, 702.289 649.038, 701.075 652.750" stroke="none" fill="#040404" fill-rule="evenodd"/></svg>