<svg xmlns="http://www.w3.org/2000/svg" fill="none" viewBox="0.9 0.04 3356.38 1065.59">
<path d="M88.8215 203.801C124.4 134.995 153.316 114.605 166.131 115.92C173.35 114.127 186.72 129.823 189.156 135.335L242.604 234.766L474.417 664.865C509.843 730.564 477.96 815.587 438.025 875.167C398.09 934.748 392.944 935.082 376.512 936.036C366.041 933.763 360.569 930.686 353.138 914.636L61.0008 363.283C58.0265 356.23 57.4477 352.452 56.582 345.74C57.5736 291.343 63.2335 262.4 88.8215 203.801Z" fill="#00B5FC" stroke="#00B5FC"/>
<path d="M493.526 214.737C529.105 145.931 558.021 125.541 570.836 126.856C578.055 125.063 591.425 140.759 593.86 146.271L647.308 245.703L879.122 675.801C914.548 741.5 882.665 826.523 842.73 886.104C802.795 945.684 797.649 946.018 781.217 946.972C770.746 944.699 765.274 941.622 757.843 925.572L465.706 374.219C462.731 367.166 462.153 363.388 461.287 356.676C462.278 302.279 467.938 273.336 493.526 214.737Z" fill="#00B5FC" stroke="#00B5FC"/>
<path d="M866.474 203.801C902.052 134.995 930.968 114.605 943.783 115.92C951.002 114.127 964.372 129.823 966.808 135.335L1020.26 234.766L1036.91 265.671C1072.34 331.371 1040.46 416.394 1000.52 475.974C960.585 535.555 955.44 535.888 939.007 536.843C928.537 534.57 923.065 531.493 915.634 515.442L838.653 363.283C835.679 356.23 835.1 352.452 834.234 345.74C835.226 291.343 840.886 262.4 866.474 203.801Z" fill="#00B5FC" stroke="#00B5FC"/>
<path d="M2349.63 179.562C2385.21 110.757 2414.13 90.3667 2426.94 91.6814C2434.16 89.8882 2447.53 105.584 2449.97 111.097L2503.41 210.528L2735.23 640.626C2770.65 706.326 2738.77 791.349 2698.84 850.929C2658.9 910.51 2653.75 910.843 2637.32 911.798C2626.85 909.525 2621.38 906.448 2613.95 890.397L2321.81 339.045C2318.84 331.992 2318.26 328.213 2317.39 321.502C2318.38 267.104 2324.04 238.162 2349.63 179.562Z" fill="#00B5FC" stroke="#00B5FC"/>
<path d="M2754.34 190.498C2789.92 121.693 2818.83 101.303 2831.65 102.617C2838.87 100.824 2852.24 116.52 2854.67 122.033L2908.12 221.464L3139.93 651.562C3175.36 717.262 3143.48 802.285 3103.54 861.865C3063.61 921.446 3058.46 921.779 3042.03 922.734C3031.56 920.461 3026.09 917.384 3018.65 901.333L2726.52 349.981C2723.54 342.928 2722.96 339.149 2722.1 332.438C2723.09 278.04 2728.75 249.098 2754.34 190.498Z" fill="#00B5FC" stroke="#00B5FC"/>
<path d="M3127.28 179.562C3162.86 110.757 3191.78 90.3667 3204.59 91.6814C3211.81 89.8882 3225.18 105.584 3227.62 111.097L3281.07 210.528L3297.72 241.433C3333.15 307.133 3301.27 392.155 3261.33 451.736C3221.4 511.316 3216.25 511.65 3199.82 512.605C3189.35 510.331 3183.88 507.255 3176.44 491.204L3099.46 339.045C3096.49 331.992 3095.91 328.213 3095.04 321.502C3096.04 267.104 3101.7 238.162 3127.28 179.562Z" fill="#00B5FC" stroke="#00B5FC"/>
<circle cx="1684.81" cy="536.843" r="353.804" stroke="#00B5FC" stroke-width="183"/>
<path d="M1746.17 487.578L1771.56 494.135L1818.13 414.626L1746.17 487.578Z" fill="#00B5FC"/>
<path fill-rule="evenodd" clip-rule="evenodd" d="M1685.1 283.116L1739.09 459.772L1746.17 487.578L1685.1 544.111L1685.1 283.116ZM1768.94 586.039L1948.87 539.92L1685.1 544.111L1738.17 593.928L1768.94 586.039Z" fill="#00B5FC"/>
<path d="M1738.17 593.928L1732.39 615.554L1816.17 665.354L1738.17 593.928Z" fill="#00B5FC"/>
<path d="M1746.17 487.578L1739.09 459.772M1746.17 487.578L1771.56 494.135M1746.17 487.578L1818.13 414.626M1746.17 487.578L1685.1 544.111M1948.87 539.92L1771.56 494.135M1948.87 539.92L1768.94 586.039M1948.87 539.92L1685.1 544.111M1738.17 593.928L1768.94 586.039M1738.17 593.928L1732.39 615.554M1738.17 593.928L1816.17 665.354M1738.17 593.928L1685.1 544.111M1739.09 459.772L1685.1 283.116L1685.1 544.111M1739.09 459.772L1818.13 414.626M1818.13 414.626L1771.56 494.135M1768.94 586.039L1816.17 665.354M1816.17 665.354L1732.39 615.554M1732.39 615.554L1685.1 792.662V544.111" stroke="#00B5FC" stroke-width="4"/>
<path d="M1637.35 615.554L1631.58 593.928L1684.64 544.111V792.662L1637.35 615.554Z" fill="#00B5FC"/>
<path fill-rule="evenodd" clip-rule="evenodd" d="M1553.57 665.354L1631.58 593.928L1600.8 586.039L1553.57 665.354ZM1630.66 459.772L1551.61 414.626L1623.57 487.578L1630.66 459.772Z" fill="#00B5FC"/>
<path d="M1598.18 494.135L1623.57 487.578L1684.64 544.111L1420.87 539.92L1598.18 494.135Z" fill="#00B5FC"/>
<path d="M1623.57 487.578L1630.66 459.772M1623.57 487.578L1598.18 494.135M1623.57 487.578L1551.61 414.626M1623.57 487.578L1684.64 544.111M1420.87 539.92L1598.18 494.135M1420.87 539.92L1600.8 586.039M1420.87 539.92L1684.64 544.111M1631.58 593.928L1600.8 586.039M1631.58 593.928L1637.35 615.554M1631.58 593.928L1553.57 665.354M1631.58 593.928L1684.64 544.111M1630.66 459.772L1684.64 283.116L1684.64 544.111M1630.66 459.772L1551.61 414.626M1551.61 414.626L1598.18 494.135M1600.8 586.039L1553.57 665.354M1553.57 665.354L1637.35 615.554M1637.35 615.554L1684.64 792.662V544.111" stroke="#00B5FC" stroke-width="4"/>
<path fill-rule="evenodd" clip-rule="evenodd" d="M1684.77 543.921L1623.34 487.508L1420.75 539.984L1684.77 543.921Z" fill="#FF5900"/>
<path d="M1684.77 543.921L1631.3 592.951L1420.75 539.984M1684.77 543.921L1623.34 487.508L1420.75 539.984M1684.77 543.921L1420.75 539.984" stroke="#FF5900" stroke-width="4"/>
<mask id="mask0_3_37" style="mask-type:alpha" maskUnits="userSpaceOnUse" x="0" y="0" width="3358" height="1066">
<rect x="0.904785" y="0.0443726" width="3356.38" height="1065.59" fill="#D9D9D9" fill-opacity="0.56"/>
</mask>
<g mask="url(#mask0_3_37)">
</g>
</svg>