<svg width="231" height="205" viewBox="0 0 231 205" fill="none" xmlns="http://www.w3.org/2000/svg">
<path d="M24.0146 141.639C23.2646 141.639 22.8896 141.436 22.8896 141.03V122.702C22.8896 122.285 23.2646 122.077 24.0146 122.077H24.2334C24.973 122.077 25.3428 122.285 25.3428 122.702V131.202H25.4521L32.2803 122.483C32.4053 122.348 32.6032 122.249 32.874 122.186C33.1553 122.113 33.4626 122.077 33.7959 122.077H34.0615C34.374 122.077 34.6136 122.113 34.7803 122.186C34.9469 122.259 35.0303 122.348 35.0303 122.452C35.0303 122.619 34.9417 122.806 34.7646 123.014L27.8271 131.671L36.2334 140.811C36.4001 140.988 36.4834 141.134 36.4834 141.249C36.4834 141.405 36.3896 141.509 36.2021 141.561C36.0251 141.613 35.7126 141.639 35.2646 141.639H34.9209C34.5251 141.639 34.2074 141.619 33.9678 141.577C33.7386 141.535 33.5511 141.436 33.4053 141.28L25.4521 132.342H25.3428V141.03C25.3428 141.436 24.973 141.639 24.2334 141.639H24.0146ZM37.1734 123.561C36.4338 123.561 36.064 123.358 36.064 122.952V121.311C36.064 120.905 36.4338 120.702 37.1734 120.702H37.5015C38.2515 120.702 38.6265 120.905 38.6265 121.311V122.952C38.6265 123.358 38.2515 123.561 37.5015 123.561H37.1734ZM37.2828 141.639C36.5432 141.639 36.1734 141.436 36.1734 141.03V127.624C36.1734 127.217 36.5432 127.014 37.2828 127.014H37.3921C38.1421 127.014 38.5171 127.217 38.5171 127.624V141.03C38.5171 141.436 38.1421 141.639 37.3921 141.639H37.2828ZM41.9728 141.639C41.5769 141.639 41.2905 141.592 41.1134 141.499C40.9363 141.395 40.8478 141.238 40.8478 141.03V131.28C40.8478 130.072 40.7905 129.202 40.6759 128.671C40.5613 128.129 40.504 127.832 40.504 127.78C40.504 127.551 40.6759 127.389 41.0196 127.296C41.3738 127.191 41.7071 127.139 42.0196 127.139C42.2801 127.139 42.4728 127.28 42.5978 127.561C42.7228 127.842 42.8113 128.129 42.8634 128.421C42.9259 128.712 42.9676 128.9 42.9884 128.983C43.5717 128.327 44.2436 127.816 45.004 127.452C45.7749 127.087 46.5509 126.905 47.3321 126.905C48.7488 126.905 49.853 127.306 50.6446 128.108C51.4467 128.9 51.8478 129.994 51.8478 131.389V141.03C51.8478 141.238 51.7592 141.395 51.5821 141.499C51.4051 141.592 51.1238 141.639 50.7384 141.639H50.6134C50.2384 141.639 49.9624 141.592 49.7853 141.499C49.6082 141.395 49.5196 141.238 49.5196 141.03V131.624C49.5196 130.77 49.2696 130.108 48.7696 129.639C48.2801 129.16 47.5874 128.921 46.6915 128.921C46.0665 128.921 45.4363 129.098 44.8009 129.452C44.1759 129.796 43.6342 130.27 43.1759 130.874V141.03C43.1759 141.238 43.0874 141.395 42.9103 141.499C42.7332 141.592 42.4571 141.639 42.0821 141.639H41.9728ZM56.7565 141.858C55.9753 141.858 55.2461 141.759 54.569 141.561C53.8919 141.363 53.3503 141.124 52.944 140.842C52.5482 140.551 52.3503 140.296 52.3503 140.077C52.3503 139.973 52.4024 139.806 52.5065 139.577C52.6211 139.348 52.7513 139.145 52.8971 138.967C53.0534 138.78 53.194 138.686 53.319 138.686C53.3503 138.686 53.444 138.738 53.6003 138.842C54.0169 139.113 54.4544 139.342 54.9128 139.53C55.3815 139.717 55.9388 139.811 56.5846 139.811C58.3971 139.811 59.3034 139.061 59.3034 137.561C59.3034 137.134 59.2149 136.775 59.0378 136.483C58.8711 136.191 58.5846 135.936 58.1784 135.717C57.7826 135.488 57.2357 135.27 56.5378 135.061C55.5378 134.77 54.7565 134.436 54.194 134.061C53.6419 133.686 53.2513 133.249 53.0221 132.749C52.793 132.238 52.6784 131.624 52.6784 130.905C52.6784 130.134 52.8711 129.441 53.2565 128.827C53.6524 128.212 54.1992 127.733 54.8971 127.389C55.6055 127.046 56.4024 126.874 57.2878 126.874C57.9024 126.874 58.4909 126.931 59.0534 127.046C59.6263 127.16 60.0846 127.311 60.4284 127.499C60.7826 127.676 60.9596 127.863 60.9596 128.061C60.9596 128.207 60.9076 128.405 60.8034 128.655C60.7096 128.895 60.5899 129.108 60.444 129.296C60.2982 129.473 60.168 129.561 60.0534 129.561C60.0326 129.561 59.9024 129.499 59.6628 129.374C59.4232 129.238 59.1159 129.119 58.7409 129.014C58.3763 128.9 57.9701 128.842 57.5221 128.842C56.8138 128.842 56.2253 129.004 55.7565 129.327C55.2982 129.639 55.069 130.061 55.069 130.592C55.069 131.217 55.2357 131.717 55.569 132.092C55.9024 132.467 56.4544 132.775 57.2253 133.014C58.4128 133.379 59.319 133.744 59.944 134.108C60.569 134.473 61.0117 134.921 61.2721 135.452C61.543 135.973 61.6784 136.66 61.6784 137.514C61.6784 138.327 61.4596 139.066 61.0221 139.733C60.5846 140.389 59.9909 140.91 59.2409 141.296C58.4909 141.671 57.6628 141.858 56.7565 141.858ZM66.134 141.749C65.2069 141.749 64.3788 141.467 63.6497 140.905C62.9205 140.342 62.5559 139.348 62.5559 137.921V121.311C62.5559 120.905 62.9257 120.702 63.6653 120.702H63.7903C64.5194 120.702 64.884 120.905 64.884 121.311V137.702C64.884 138.462 65.0194 138.994 65.2903 139.296C65.5611 139.598 65.9257 139.749 66.384 139.749C66.7278 139.749 66.9986 139.728 67.1965 139.686C67.3944 139.645 67.5247 139.624 67.5872 139.624C67.7538 139.624 67.8892 139.79 67.9934 140.124C68.108 140.457 68.1653 140.723 68.1653 140.921C68.1653 141.473 67.4882 141.749 66.134 141.749ZM74.3396 141.749C72.0376 141.749 70.324 141.15 69.199 139.952C68.0844 138.744 67.5271 136.9 67.5271 134.421C67.5271 131.962 68.074 130.098 69.1678 128.827C70.2615 127.546 71.8709 126.905 73.9959 126.905C75.8917 126.905 77.3188 127.52 78.2771 128.749C79.2459 129.978 79.7303 131.78 79.7303 134.155C79.7303 134.259 79.673 134.405 79.5584 134.592C79.4542 134.77 79.324 134.931 79.1678 135.077C79.0219 135.212 78.8969 135.28 78.7928 135.28H70.0271C70.1417 136.832 70.5376 137.967 71.2146 138.686C71.9021 139.395 72.9334 139.749 74.3084 139.749C75.0792 139.749 75.7407 139.655 76.2928 139.467C76.8553 139.28 77.3969 139.051 77.9178 138.78C77.9699 138.759 78.048 138.723 78.1521 138.671C78.2563 138.619 78.3292 138.592 78.3709 138.592C78.4855 138.592 78.6157 138.686 78.7615 138.874C78.9178 139.051 79.048 139.254 79.1521 139.483C79.2667 139.702 79.324 139.863 79.324 139.967C79.324 140.197 79.0949 140.452 78.6365 140.733C78.1782 141.014 77.5636 141.254 76.7928 141.452C76.0324 141.65 75.2146 141.749 74.3396 141.749ZM77.2459 133.28C77.2459 130.363 76.1365 128.905 73.9178 128.905C71.5324 128.905 70.2355 130.363 70.0271 133.28H77.2459ZM82.3265 147.374C81.7224 147.374 81.4203 147.223 81.4203 146.921C81.4203 146.848 81.4619 146.697 81.5453 146.467L83.8734 140.811L79.014 127.842C79.0036 127.801 78.988 127.744 78.9671 127.671C78.9463 127.587 78.9359 127.525 78.9359 127.483C78.9359 127.337 79.0349 127.223 79.2328 127.139C79.4307 127.056 79.7328 127.014 80.139 127.014H80.3578C80.9828 127.014 81.3526 127.16 81.4671 127.452L84.2953 134.983C84.5453 135.639 84.8421 136.572 85.1859 137.78H85.2328L85.5609 136.749C85.613 136.592 85.7015 136.327 85.8265 135.952C85.9515 135.566 86.0661 135.244 86.1703 134.983L88.9359 127.452C89.0296 127.16 89.4099 127.014 90.0765 127.014H90.1703C90.8994 127.014 91.264 127.171 91.264 127.483C91.264 127.556 91.238 127.681 91.1859 127.858L84.0609 146.796C83.8942 147.181 83.4567 147.374 82.7484 147.374H82.3265ZM94.9097 141.639C94.493 141.639 94.1909 141.603 94.0034 141.53C93.8159 141.447 93.7222 141.327 93.7222 141.171C93.7222 141.098 93.7482 140.973 93.8003 140.796L100.378 122.53C100.483 122.228 100.852 122.077 101.488 122.077H102.3C102.936 122.077 103.305 122.228 103.41 122.53L109.988 140.811C110.04 140.926 110.066 141.046 110.066 141.171C110.066 141.483 109.675 141.639 108.894 141.639H108.66C108.014 141.639 107.639 141.494 107.535 141.202L105.91 136.639H97.7534L96.1597 141.202C96.0659 141.494 95.6961 141.639 95.0503 141.639H94.9097ZM105.16 134.53L102.253 126.264C102.17 126.035 102.102 125.775 102.05 125.483C101.998 125.191 101.951 124.91 101.91 124.639H101.847C101.722 125.337 101.582 125.879 101.425 126.264L98.519 134.53H105.16ZM111.365 141.639C110.969 141.639 110.683 141.592 110.506 141.499C110.329 141.395 110.24 141.238 110.24 141.03V131.28C110.24 130.072 110.183 129.202 110.068 128.671C109.954 128.129 109.897 127.832 109.897 127.78C109.897 127.551 110.068 127.389 110.412 127.296C110.766 127.191 111.1 127.139 111.412 127.139C111.673 127.139 111.865 127.28 111.99 127.561C112.115 127.842 112.204 128.129 112.256 128.421C112.318 128.712 112.36 128.9 112.381 128.983C112.964 128.327 113.636 127.816 114.397 127.452C115.167 127.087 115.943 126.905 116.725 126.905C118.141 126.905 119.245 127.306 120.037 128.108C120.839 128.9 121.24 129.994 121.24 131.389V141.03C121.24 141.238 121.152 141.395 120.975 141.499C120.798 141.592 120.516 141.639 120.131 141.639H120.006C119.631 141.639 119.355 141.592 119.178 141.499C119.001 141.395 118.912 141.238 118.912 141.03V131.624C118.912 130.77 118.662 130.108 118.162 129.639C117.673 129.16 116.98 128.921 116.084 128.921C115.459 128.921 114.829 129.098 114.193 129.452C113.568 129.796 113.027 130.27 112.568 130.874V141.03C112.568 141.238 112.48 141.395 112.303 141.499C112.126 141.592 111.85 141.639 111.475 141.639H111.365ZM127.587 141.749C126.503 141.749 125.555 141.436 124.743 140.811C123.93 140.176 123.3 139.296 122.852 138.171C122.415 137.046 122.196 135.77 122.196 134.342C122.196 132.77 122.43 131.426 122.899 130.311C123.378 129.186 124.045 128.337 124.899 127.764C125.753 127.191 126.738 126.905 127.852 126.905C128.654 126.905 129.363 127.025 129.977 127.264C130.602 127.504 131.217 127.853 131.821 128.311V121.311C131.821 120.905 132.185 120.702 132.915 120.702H133.04C133.779 120.702 134.149 120.905 134.149 121.311V137.483C134.149 138.691 134.206 139.566 134.321 140.108C134.435 140.639 134.493 140.931 134.493 140.983C134.493 141.212 134.316 141.379 133.962 141.483C133.618 141.577 133.295 141.624 132.993 141.624C132.784 141.624 132.618 141.525 132.493 141.327C132.368 141.129 132.279 140.931 132.227 140.733C132.185 140.525 132.113 140.171 132.008 139.671C130.685 141.056 129.212 141.749 127.587 141.749ZM128.071 139.733C128.685 139.733 129.321 139.566 129.977 139.233C130.644 138.9 131.258 138.426 131.821 137.811V130.202C130.821 129.369 129.68 128.952 128.399 128.952C127.159 128.983 126.222 129.436 125.587 130.311C124.962 131.186 124.649 132.457 124.649 134.124C124.649 135.915 124.941 137.301 125.524 138.28C126.118 139.249 126.967 139.733 128.071 139.733ZM142.261 141.749C139.959 141.749 138.245 141.15 137.12 139.952C136.006 138.744 135.448 136.9 135.448 134.421C135.448 131.962 135.995 130.098 137.089 128.827C138.183 127.546 139.792 126.905 141.917 126.905C143.813 126.905 145.24 127.52 146.198 128.749C147.167 129.978 147.652 131.78 147.652 134.155C147.652 134.259 147.594 134.405 147.48 134.592C147.375 134.77 147.245 134.931 147.089 135.077C146.943 135.212 146.818 135.28 146.714 135.28H137.948C138.063 136.832 138.459 137.967 139.136 138.686C139.823 139.395 140.855 139.749 142.23 139.749C143 139.749 143.662 139.655 144.214 139.467C144.777 139.28 145.318 139.051 145.839 138.78C145.891 138.759 145.969 138.723 146.073 138.671C146.178 138.619 146.25 138.592 146.292 138.592C146.407 138.592 146.537 138.686 146.683 138.874C146.839 139.051 146.969 139.254 147.073 139.483C147.188 139.702 147.245 139.863 147.245 139.967C147.245 140.197 147.016 140.452 146.558 140.733C146.099 141.014 145.485 141.254 144.714 141.452C143.954 141.65 143.136 141.749 142.261 141.749ZM145.167 133.28C145.167 130.363 144.058 128.905 141.839 128.905C139.454 128.905 138.157 130.363 137.948 133.28H145.167ZM149.982 141.639C149.586 141.639 149.3 141.592 149.123 141.499C148.946 141.395 148.857 141.238 148.857 141.03V131.28C148.857 130.072 148.8 129.202 148.685 128.671C148.571 128.129 148.513 127.832 148.513 127.78C148.513 127.551 148.685 127.389 149.029 127.296C149.383 127.191 149.717 127.139 150.029 127.139C150.279 127.139 150.467 127.275 150.592 127.546C150.717 127.806 150.826 128.176 150.92 128.655L150.998 128.983C151.987 127.598 153.06 126.905 154.217 126.905C154.748 126.905 155.149 127.004 155.42 127.202C155.69 127.389 155.826 127.645 155.826 127.967C155.826 128.28 155.769 128.613 155.654 128.967C155.55 129.311 155.425 129.483 155.279 129.483C155.206 129.483 155.076 129.452 154.888 129.389C154.722 129.316 154.555 129.264 154.388 129.233C154.222 129.191 154.008 129.171 153.748 129.171C153.321 129.171 152.914 129.296 152.529 129.546C152.154 129.796 151.836 130.072 151.576 130.374C151.315 130.676 151.185 130.842 151.185 130.874V141.03C151.185 141.238 151.097 141.395 150.92 141.499C150.743 141.592 150.467 141.639 150.092 141.639H149.982ZM159.344 141.858C158.563 141.858 157.834 141.759 157.157 141.561C156.479 141.363 155.938 141.124 155.532 140.842C155.136 140.551 154.938 140.296 154.938 140.077C154.938 139.973 154.99 139.806 155.094 139.577C155.209 139.348 155.339 139.145 155.485 138.967C155.641 138.78 155.782 138.686 155.907 138.686C155.938 138.686 156.032 138.738 156.188 138.842C156.604 139.113 157.042 139.342 157.5 139.53C157.969 139.717 158.526 139.811 159.172 139.811C160.985 139.811 161.891 139.061 161.891 137.561C161.891 137.134 161.802 136.775 161.625 136.483C161.459 136.191 161.172 135.936 160.766 135.717C160.37 135.488 159.823 135.27 159.125 135.061C158.125 134.77 157.344 134.436 156.782 134.061C156.229 133.686 155.839 133.249 155.61 132.749C155.38 132.238 155.266 131.624 155.266 130.905C155.266 130.134 155.459 129.441 155.844 128.827C156.24 128.212 156.787 127.733 157.485 127.389C158.193 127.046 158.99 126.874 159.875 126.874C160.49 126.874 161.078 126.931 161.641 127.046C162.214 127.16 162.672 127.311 163.016 127.499C163.37 127.676 163.547 127.863 163.547 128.061C163.547 128.207 163.495 128.405 163.391 128.655C163.297 128.895 163.177 129.108 163.032 129.296C162.886 129.473 162.755 129.561 162.641 129.561C162.62 129.561 162.49 129.499 162.25 129.374C162.011 129.238 161.703 129.119 161.328 129.014C160.964 128.9 160.558 128.842 160.11 128.842C159.401 128.842 158.813 129.004 158.344 129.327C157.886 129.639 157.657 130.061 157.657 130.592C157.657 131.217 157.823 131.717 158.157 132.092C158.49 132.467 159.042 132.775 159.813 133.014C161 133.379 161.907 133.744 162.532 134.108C163.157 134.473 163.599 134.921 163.86 135.452C164.13 135.973 164.266 136.66 164.266 137.514C164.266 138.327 164.047 139.066 163.61 139.733C163.172 140.389 162.578 140.91 161.828 141.296C161.078 141.671 160.25 141.858 159.344 141.858ZM170.831 141.749C168.737 141.749 167.138 141.124 166.034 139.874C164.94 138.613 164.393 136.785 164.393 134.389C164.393 131.994 164.951 130.15 166.065 128.858C167.18 127.556 168.768 126.905 170.831 126.905C172.873 126.905 174.435 127.551 175.518 128.842C176.602 130.124 177.143 131.973 177.143 134.389C177.143 136.796 176.607 138.624 175.534 139.874C174.472 141.124 172.904 141.749 170.831 141.749ZM170.753 139.749C172.107 139.749 173.107 139.311 173.753 138.436C174.399 137.551 174.722 136.186 174.722 134.342C174.722 132.488 174.399 131.119 173.753 130.233C173.107 129.348 172.107 128.905 170.753 128.905C169.409 128.905 168.419 129.348 167.784 130.233C167.149 131.108 166.831 132.478 166.831 134.342C166.831 136.197 167.143 137.561 167.768 138.436C168.404 139.311 169.399 139.749 170.753 139.749ZM179.63 141.639C179.234 141.639 178.948 141.592 178.771 141.499C178.594 141.395 178.505 141.238 178.505 141.03V131.28C178.505 130.072 178.448 129.202 178.333 128.671C178.219 128.129 178.162 127.832 178.162 127.78C178.162 127.551 178.333 127.389 178.677 127.296C179.031 127.191 179.365 127.139 179.677 127.139C179.938 127.139 180.13 127.28 180.255 127.561C180.38 127.842 180.469 128.129 180.521 128.421C180.583 128.712 180.625 128.9 180.646 128.983C181.229 128.327 181.901 127.816 182.662 127.452C183.432 127.087 184.208 126.905 184.99 126.905C186.406 126.905 187.51 127.306 188.302 128.108C189.104 128.9 189.505 129.994 189.505 131.389V141.03C189.505 141.238 189.417 141.395 189.24 141.499C189.063 141.592 188.781 141.639 188.396 141.639H188.271C187.896 141.639 187.62 141.592 187.443 141.499C187.266 141.395 187.177 141.238 187.177 141.03V131.624C187.177 130.77 186.927 130.108 186.427 129.639C185.938 129.16 185.245 128.921 184.349 128.921C183.724 128.921 183.094 129.098 182.458 129.452C181.833 129.796 181.292 130.27 180.833 130.874V141.03C180.833 141.238 180.745 141.395 180.568 141.499C180.391 141.592 180.115 141.639 179.74 141.639H179.63Z" fill="black"/>
<path d="M25.7969 163.57C24.181 163.57 22.9857 163.144 22.2109 162.292C21.4362 161.44 21.0488 160.115 21.0488 158.316C21.0488 154.813 22.6398 153.062 25.8218 153.062C26.2866 153.062 26.7376 153.112 27.1748 153.211C27.612 153.305 27.9661 153.424 28.2373 153.568C28.5085 153.712 28.644 153.85 28.644 153.983C28.644 154.066 28.6136 154.177 28.5527 154.315C28.4974 154.453 28.431 154.575 28.3535 154.68C28.276 154.786 28.2069 154.838 28.146 154.838C28.1183 154.838 28.0409 154.802 27.9136 154.73C27.6258 154.575 27.3242 154.445 27.0088 154.34C26.6934 154.235 26.3088 154.182 25.855 154.182C24.6652 154.182 23.7881 154.514 23.2236 155.178C22.6647 155.837 22.3853 156.888 22.3853 158.333C22.3853 159.744 22.6619 160.784 23.2153 161.454C23.7743 162.118 24.6348 162.45 25.7969 162.45C26.2839 162.45 26.7017 162.392 27.0503 162.276C27.3989 162.159 27.7337 162.015 28.0547 161.844C28.2096 161.761 28.3037 161.719 28.3369 161.719C28.3978 161.719 28.467 161.772 28.5444 161.877C28.6274 161.982 28.6994 162.101 28.7603 162.234C28.8211 162.361 28.8516 162.453 28.8516 162.508C28.8516 162.646 28.7104 162.801 28.4282 162.973C28.1515 163.139 27.778 163.28 27.3076 163.396C26.8428 163.512 26.3392 163.57 25.7969 163.57ZM32.223 163.57C31.1107 163.57 30.2613 163.238 29.6747 162.574C29.0936 161.905 28.8031 160.934 28.8031 159.661C28.8031 158.388 29.0991 157.409 29.6913 156.722C30.2834 156.031 31.1273 155.685 32.223 155.685C33.3076 155.685 34.1377 156.028 34.7132 156.714C35.2888 157.395 35.5765 158.377 35.5765 159.661C35.5765 160.939 35.2915 161.91 34.7215 162.574C34.1571 163.238 33.3242 163.57 32.223 163.57ZM32.1815 162.508C32.9009 162.508 33.4322 162.276 33.7753 161.811C34.1184 161.34 34.2899 160.615 34.2899 159.636C34.2899 158.651 34.1184 157.923 33.7753 157.453C33.4322 156.982 32.9009 156.747 32.1815 156.747C31.4676 156.747 30.9419 156.982 30.6044 157.453C30.2668 157.918 30.098 158.645 30.098 159.636C30.098 160.621 30.264 161.346 30.5961 161.811C30.9336 162.276 31.4621 162.508 32.1815 162.508ZM36.8977 163.512C36.6874 163.512 36.5352 163.487 36.4411 163.438C36.3471 163.382 36.3 163.299 36.3 163.189V158.009C36.3 157.367 36.2696 156.905 36.2087 156.623C36.1478 156.335 36.1174 156.177 36.1174 156.15C36.1174 156.028 36.2087 155.942 36.3913 155.892C36.5795 155.837 36.7566 155.809 36.9226 155.809C37.0609 155.809 37.1633 155.884 37.2297 156.033C37.2961 156.183 37.3432 156.335 37.3708 156.49C37.404 156.645 37.4262 156.744 37.4372 156.789C37.7471 156.44 38.1041 156.169 38.508 155.975C38.9175 155.782 39.3298 155.685 39.7448 155.685C40.4974 155.685 41.084 155.898 41.5046 156.324C41.9307 156.744 42.1438 157.326 42.1438 158.067V163.189C42.1438 163.299 42.0967 163.382 42.0027 163.438C41.9086 163.487 41.7592 163.512 41.5544 163.512H41.488C41.2888 163.512 41.1421 163.487 41.0481 163.438C40.954 163.382 40.907 163.299 40.907 163.189V158.192C40.907 157.738 40.7741 157.386 40.5085 157.137C40.2484 156.883 39.8804 156.756 39.4045 156.756C39.0725 156.756 38.7377 156.85 38.4001 157.038C38.0681 157.22 37.7803 157.472 37.5368 157.793V163.189C37.5368 163.299 37.4898 163.382 37.3957 163.438C37.3016 163.487 37.155 163.512 36.9558 163.512H36.8977ZM44.7515 163.629C44.3365 163.629 43.9491 163.576 43.5894 163.471C43.2297 163.366 42.942 163.238 42.7262 163.089C42.5159 162.934 42.4107 162.799 42.4107 162.682C42.4107 162.627 42.4384 162.538 42.4937 162.417C42.5546 162.295 42.6238 162.187 42.7013 162.093C42.7843 161.993 42.859 161.944 42.9254 161.944C42.942 161.944 42.9918 161.971 43.0748 162.027C43.2961 162.17 43.5286 162.292 43.7721 162.392C44.0211 162.491 44.3171 162.541 44.6602 162.541C45.6231 162.541 46.1046 162.143 46.1046 161.346C46.1046 161.119 46.0575 160.928 45.9635 160.773C45.8749 160.618 45.7227 160.483 45.5069 160.366C45.2966 160.245 45.0061 160.128 44.6353 160.018C44.1041 159.863 43.689 159.686 43.3902 159.487C43.0969 159.287 42.8894 159.055 42.7677 158.789C42.6459 158.518 42.585 158.192 42.585 157.81C42.585 157.4 42.6874 157.032 42.8922 156.706C43.1025 156.379 43.393 156.125 43.7638 155.942C44.1401 155.759 44.5634 155.668 45.0338 155.668C45.3603 155.668 45.6729 155.699 45.9718 155.759C46.2761 155.82 46.5196 155.901 46.7022 156C46.8904 156.094 46.9845 156.194 46.9845 156.299C46.9845 156.376 46.9568 156.482 46.9014 156.614C46.8516 156.742 46.788 156.855 46.7105 156.955C46.6331 157.049 46.5639 157.096 46.503 157.096C46.4919 157.096 46.4228 157.063 46.2955 156.996C46.1682 156.924 46.005 156.861 45.8057 156.805C45.6121 156.744 45.3962 156.714 45.1583 156.714C44.782 156.714 44.4693 156.8 44.2203 156.971C43.9768 157.137 43.8551 157.362 43.8551 157.644C43.8551 157.976 43.9436 158.241 44.1207 158.441C44.2978 158.64 44.5911 158.803 45.0006 158.93C45.6314 159.124 46.1129 159.318 46.4449 159.511C46.7769 159.705 47.0121 159.943 47.1505 160.225C47.2943 160.502 47.3663 160.867 47.3663 161.321C47.3663 161.753 47.2501 162.146 47.0177 162.5C46.7852 162.848 46.4698 163.125 46.0714 163.33C45.6729 163.529 45.233 163.629 44.7515 163.629ZM50.1318 163.57C49.3792 163.57 48.7898 163.36 48.3637 162.94C47.9376 162.514 47.7246 161.927 47.7246 161.18V156.067C47.7246 155.851 47.9238 155.743 48.3222 155.743H48.3803C48.7732 155.743 48.9697 155.851 48.9697 156.067V161.064C48.9697 161.517 49.0997 161.872 49.3598 162.126C49.6254 162.375 49.9962 162.5 50.4721 162.5C50.8041 162.5 51.1362 162.408 51.4682 162.226C51.8002 162.038 52.088 161.783 52.3315 161.462V156.067C52.3315 155.851 52.5279 155.743 52.9208 155.743H52.9789C53.3774 155.743 53.5766 155.851 53.5766 156.067V161.304C53.5766 161.946 53.6043 162.411 53.6596 162.699C53.7149 162.981 53.7426 163.136 53.7426 163.164C53.7426 163.286 53.6513 163.374 53.4687 163.429C53.2861 163.479 53.1145 163.504 52.954 163.504C52.8157 163.504 52.7133 163.427 52.6469 163.272C52.5805 163.111 52.5307 162.948 52.4975 162.782C52.4698 162.616 52.4505 162.511 52.4394 162.466C52.1295 162.815 51.7698 163.086 51.3603 163.28C50.9563 163.474 50.5468 163.57 50.1318 163.57ZM56.5911 163.57C56.0986 163.57 55.6587 163.421 55.2713 163.122C54.8839 162.823 54.6902 162.295 54.6902 161.537V152.713C54.6902 152.497 54.8867 152.389 55.2796 152.389H55.346C55.7334 152.389 55.9271 152.497 55.9271 152.713V161.421C55.9271 161.825 55.999 162.107 56.1429 162.267C56.2868 162.428 56.4804 162.508 56.7239 162.508C56.9065 162.508 57.0504 162.497 57.1556 162.475C57.2607 162.453 57.3299 162.442 57.3631 162.442C57.4516 162.442 57.5236 162.53 57.5789 162.707C57.6398 162.884 57.6702 163.025 57.6702 163.131C57.6702 163.424 57.3105 163.57 56.5911 163.57ZM60.0041 163.57C59.5115 163.57 59.0716 163.421 58.6842 163.122C58.2969 162.823 58.1032 162.295 58.1032 161.537V156.83H57.3644C57.2593 156.83 57.1818 156.797 57.132 156.731C57.0877 156.659 57.0656 156.545 57.0656 156.39V156.208C57.0656 156.053 57.0877 155.942 57.132 155.876C57.1818 155.804 57.2593 155.768 57.3644 155.768H58.1032L58.2775 154.224C58.2886 154.008 58.4463 153.9 58.7506 153.9H58.8918C59.0467 153.9 59.1601 153.928 59.2321 153.983C59.304 154.033 59.34 154.113 59.34 154.224V155.768H60.5768C60.682 155.768 60.7567 155.804 60.8009 155.876C60.8507 155.942 60.8756 156.053 60.8756 156.208V156.39C60.8756 156.545 60.8507 156.659 60.8009 156.731C60.7567 156.797 60.682 156.83 60.5768 156.83H59.34V161.421C59.34 161.825 59.4092 162.107 59.5475 162.267C59.6914 162.428 59.8851 162.508 60.1286 162.508C60.3167 162.508 60.4606 162.497 60.5602 162.475C60.6654 162.453 60.7345 162.442 60.7677 162.442C60.8563 162.442 60.9282 162.53 60.9836 162.707C61.0444 162.884 61.0749 163.025 61.0749 163.131C61.0749 163.424 60.7179 163.57 60.0041 163.57ZM63.4668 163.57C62.7142 163.57 62.1055 163.385 61.6406 163.014C61.1758 162.644 60.9434 162.093 60.9434 161.362C60.9434 160.593 61.1786 160.015 61.6489 159.628C62.1193 159.235 62.6921 158.983 63.3672 158.872C64.0479 158.756 64.8724 158.69 65.8408 158.673V157.976C65.8408 157.605 65.7136 157.309 65.459 157.088C65.21 156.861 64.7977 156.747 64.2222 156.747C63.785 156.747 63.4004 156.8 63.0684 156.905C62.7419 157.005 62.4348 157.126 62.147 157.27C62.0252 157.331 61.9505 157.362 61.9229 157.362C61.8565 157.362 61.7818 157.314 61.6987 157.22C61.6213 157.121 61.5521 157.01 61.4912 156.888C61.4359 156.767 61.4082 156.678 61.4082 156.623C61.4082 156.495 61.5383 156.357 61.7984 156.208C62.064 156.058 62.4098 155.934 62.836 155.834C63.2621 155.735 63.7075 155.685 64.1724 155.685C65.0965 155.685 65.8132 155.887 66.3223 156.291C66.8314 156.695 67.086 157.262 67.086 157.992V161.304C67.086 161.946 67.1136 162.411 67.169 162.699C67.2298 162.981 67.2603 163.136 67.2603 163.164C67.2603 163.286 67.1662 163.374 66.978 163.429C66.7954 163.479 66.6239 163.504 66.4634 163.504C66.3306 163.504 66.231 163.429 66.1646 163.28C66.1037 163.131 66.0428 162.915 65.982 162.633L65.9487 162.466C65.6444 162.804 65.2847 163.072 64.8696 163.272C64.4601 163.471 63.9925 163.57 63.4668 163.57ZM63.5332 162.5C64.0202 162.5 64.4352 162.411 64.7783 162.234C65.1214 162.057 65.4756 161.805 65.8408 161.479V159.736C65.1104 159.741 64.5099 159.772 64.0396 159.827C63.5692 159.882 63.1569 160.023 62.8028 160.25C62.4486 160.472 62.2715 160.817 62.2715 161.288C62.2715 161.681 62.3766 161.982 62.5869 162.193C62.8028 162.397 63.1182 162.5 63.5332 162.5ZM68.7806 163.512C68.5704 163.512 68.4182 163.487 68.3241 163.438C68.23 163.382 68.183 163.299 68.183 163.189V158.009C68.183 157.367 68.1526 156.905 68.0917 156.623C68.0308 156.335 68.0004 156.177 68.0004 156.15C68.0004 156.028 68.0917 155.942 68.2743 155.892C68.4624 155.837 68.6395 155.809 68.8055 155.809C68.9439 155.809 69.0463 155.884 69.1127 156.033C69.1791 156.183 69.2261 156.335 69.2538 156.49C69.287 156.645 69.3091 156.744 69.3202 156.789C69.6301 156.44 69.987 156.169 70.391 155.975C70.8005 155.782 71.2128 155.685 71.6278 155.685C72.3804 155.685 72.967 155.898 73.3876 156.324C73.8137 156.744 74.0267 157.326 74.0267 158.067V163.189C74.0267 163.299 73.9797 163.382 73.8856 163.438C73.7915 163.487 73.6421 163.512 73.4374 163.512H73.371C73.1718 163.512 73.0251 163.487 72.931 163.438C72.837 163.382 72.7899 163.299 72.7899 163.189V158.192C72.7899 157.738 72.6571 157.386 72.3915 157.137C72.1314 156.883 71.7634 156.756 71.2875 156.756C70.9554 156.756 70.6206 156.85 70.2831 157.038C69.9511 157.22 69.6633 157.472 69.4198 157.793V163.189C69.4198 163.299 69.3728 163.382 69.2787 163.438C69.1846 163.487 69.038 163.512 68.8387 163.512H68.7806ZM78.1702 163.57C76.9472 163.57 76.0341 163.258 75.4309 162.633C74.8332 162.002 74.5344 160.989 74.5344 159.594C74.5344 158.183 74.8692 157.179 75.5388 156.581C76.2084 155.984 77.0412 155.685 78.0373 155.685C78.4081 155.685 78.765 155.718 79.1081 155.784C79.4512 155.845 79.7279 155.928 79.9382 156.033C80.1485 156.139 80.2537 156.249 80.2537 156.365C80.2537 156.443 80.226 156.545 80.1706 156.673C80.1208 156.8 80.0572 156.913 79.9797 157.013C79.9078 157.107 79.8414 157.154 79.7805 157.154C79.7639 157.154 79.739 157.148 79.7058 157.137C79.6726 157.121 79.6422 157.107 79.6145 157.096C79.1164 156.863 78.5797 156.747 78.0041 156.747C77.3235 156.747 76.7978 156.971 76.427 157.42C76.0562 157.862 75.8708 158.576 75.8708 159.561C75.8708 160.258 75.9455 160.823 76.095 161.255C76.2444 161.681 76.4851 161.996 76.8171 162.201C77.1547 162.406 77.6029 162.508 78.1619 162.508C78.7761 162.508 79.3295 162.381 79.822 162.126C79.8718 162.115 79.9078 162.104 79.9299 162.093C79.9576 162.076 79.977 162.068 79.988 162.068C80.0489 162.068 80.1181 162.115 80.1955 162.209C80.273 162.303 80.3394 162.411 80.3948 162.533C80.4556 162.655 80.4861 162.751 80.4861 162.823C80.4861 162.94 80.3809 163.056 80.1706 163.172C79.9604 163.288 79.6754 163.385 79.3157 163.463C78.9615 163.535 78.5797 163.57 78.1702 163.57ZM81.6329 166.559C81.3119 166.559 81.1515 166.479 81.1515 166.318C81.1515 166.279 81.1736 166.199 81.2179 166.077L82.4547 163.072L79.8731 156.183C79.8676 156.161 79.8593 156.13 79.8482 156.091C79.8372 156.047 79.8316 156.014 79.8316 155.992C79.8316 155.914 79.8842 155.854 79.9894 155.809C80.0945 155.765 80.255 155.743 80.4708 155.743H80.587C80.919 155.743 81.1155 155.82 81.1764 155.975L82.6788 159.976C82.8116 160.325 82.9693 160.82 83.152 161.462H83.1769L83.3512 160.914C83.3788 160.831 83.4259 160.69 83.4923 160.491C83.5587 160.286 83.6196 160.115 83.6749 159.976L85.1441 155.975C85.1939 155.82 85.3959 155.743 85.7501 155.743H85.7999C86.1873 155.743 86.381 155.826 86.381 155.992C86.381 156.031 86.3671 156.097 86.3395 156.191L82.5543 166.252C82.4658 166.456 82.2333 166.559 81.857 166.559H81.6329Z" fill="black"/>
<mask id="mask0_24_21" style="mask-type:alpha" maskUnits="userSpaceOnUse" x="0" y="0" width="231" height="205">
<rect x="0.10083" y="0.483154" width="190.563" height="110.204" fill="#D9D9D9"/>
<rect x="12.2695" y="152.487" width="218.015" height="52.1267" fill="#D9D9D9"/>
</mask>
<g mask="url(#mask0_24_21)">
<path d="M1.16992 1.36401C15.6074 1.87964 26.8223 2.13745 34.8145 2.13745C42.8066 2.13745 54.0215 1.87964 68.459 1.36401C68.7168 2.39526 68.8457 3.10425 68.8457 3.49097C68.8457 4.19995 68.7168 5.00562 68.459 5.90796C65.4941 6.16577 63.0771 6.45581 61.208 6.77808C59.4033 7.03589 57.1475 7.48706 54.4404 8.13159C51.7979 8.77612 49.7676 9.71069 48.3496 10.9353C46.9316 12.0955 46.1904 13.5134 46.126 15.1892C45.2881 34.2673 44.8691 51.8953 44.8691 68.073H47.6729L102.49 15.1892C103.328 13.9646 103.747 13.03 103.747 12.3855C103.747 11.1609 103.393 10.1619 102.684 9.38843C102.039 8.55054 100.814 7.93823 99.0098 7.55151C97.2695 7.10034 95.4971 6.77808 93.6924 6.58472C91.9521 6.39136 89.3418 6.16577 85.8613 5.90796C85.6035 4.7478 85.4746 3.94214 85.4746 3.49097C85.4746 3.10425 85.6035 2.39526 85.8613 1.36401C100.428 1.87964 109.999 2.13745 114.575 2.13745C117.733 2.13745 126.596 1.87964 141.162 1.36401C141.42 2.39526 141.549 3.10425 141.549 3.49097C141.549 3.94214 141.42 4.7478 141.162 5.90796C138.391 6.16577 136.167 6.42358 134.491 6.6814C132.88 6.93921 130.785 7.39038 128.207 8.03491C125.693 8.61499 123.276 9.51733 120.956 10.7419C118.7 11.9021 116.509 13.3845 114.382 15.1892L64.4951 62.6589L125.887 125.114C136.199 134.331 145.255 139.133 153.054 139.519C153.312 140.551 153.44 141.421 153.44 142.13C153.44 142.903 153.312 143.612 153.054 144.257C143.708 143.741 133.396 143.483 122.116 143.483C111.997 143.483 99.7832 143.741 85.4746 144.257C85.2168 143.483 85.0879 142.71 85.0879 141.936C85.0879 141.098 85.2168 140.293 85.4746 139.519C91.7266 139.326 95.8516 138.778 97.8496 137.876C99.9121 136.909 100.943 135.265 100.943 132.945C100.943 132.107 100.718 131.302 100.267 130.528C99.8154 129.755 99.0098 128.756 97.8496 127.531C96.7539 126.242 96.0771 125.436 95.8193 125.114L48.6396 76.1941L44.8691 76.3875C44.8691 90.1804 45.2236 108.131 45.9326 130.238C45.9971 131.914 46.7383 133.364 48.1562 134.589C49.5742 135.749 51.6045 136.651 54.2471 137.296C56.9541 137.94 59.21 138.424 61.0146 138.746C62.8838 139.004 65.3008 139.261 68.2656 139.519C68.5234 140.293 68.6523 141.163 68.6523 142.13C68.6523 142.645 68.5234 143.29 68.2656 144.063C57.3086 143.677 46.0938 143.483 34.6211 143.483C23.0195 143.483 11.8047 143.677 0.976562 144.063C0.71875 143.29 0.589844 142.645 0.589844 142.13C0.589844 141.034 0.71875 140.164 0.976562 139.519C2.91016 139.326 4.45703 139.165 5.61719 139.036C6.77734 138.907 8.35645 138.681 10.3545 138.359C12.417 138.037 14.0605 137.682 15.2852 137.296C16.5742 136.844 17.8955 136.297 19.249 135.652C20.6025 135.008 21.6016 134.234 22.2461 133.332C22.9551 132.429 23.3096 131.398 23.3096 130.238C24.083 110.064 24.4697 89.7292 24.4697 69.2332C24.4697 48.3503 24.1475 30.3357 23.5029 15.1892C23.4385 13.5134 22.6973 12.0955 21.2793 10.9353C19.8613 9.71069 17.7988 8.77612 15.0918 8.13159C12.4492 7.48706 10.1934 7.03589 8.32422 6.77808C6.51953 6.45581 4.13477 6.16577 1.16992 5.90796C0.912109 4.7478 0.783203 3.94214 0.783203 3.49097C0.783203 2.84644 0.912109 2.13745 1.16992 1.36401Z" fill="black"/>
<path d="M155.985 56.337C156.952 55.628 157.983 55.1768 159.079 54.9835L211.963 187.048C212.607 188.659 213.671 190.045 215.153 191.205C216.635 192.301 218.472 193.171 220.664 193.815C222.92 194.396 224.853 194.847 226.465 195.169C228.14 195.427 230.171 195.685 232.555 195.942C232.813 196.974 232.942 197.844 232.942 198.553C232.942 199.326 232.813 200.035 232.555 200.68C218.634 200.164 208.224 199.906 201.328 199.906C193.851 199.906 183.023 200.164 168.844 200.68C168.586 199.906 168.457 199.133 168.457 198.359C168.457 197.522 168.586 196.716 168.844 195.942C181.863 194.524 188.373 192.075 188.373 188.595C188.373 187.499 188.244 186.371 187.986 185.211L173.968 149.246C169.714 149.117 163.977 149.053 156.759 149.053C153.343 149.053 144.48 149.182 130.172 149.44L115.38 187.048V188.208C115.38 188.853 115.476 189.465 115.67 190.045C115.927 190.625 116.314 191.141 116.83 191.592C117.41 192.043 117.958 192.43 118.473 192.752C118.989 193.074 119.698 193.397 120.6 193.719C121.567 193.977 122.373 194.202 123.017 194.396C123.726 194.524 124.661 194.686 125.821 194.879C127.046 195.072 127.98 195.233 128.625 195.362C129.269 195.427 130.204 195.523 131.428 195.652C132.718 195.781 133.62 195.878 134.135 195.942C134.393 196.974 134.522 197.844 134.522 198.553C134.522 198.94 134.393 199.648 134.135 200.68C119.698 200.164 111.577 199.906 109.772 199.906C106.292 199.906 97.3328 200.164 82.8953 200.68C82.6375 199.906 82.5085 199.133 82.5085 198.359C82.5085 197.522 82.6375 196.716 82.8953 195.942C96.3015 194.396 103.939 191.108 105.808 186.081L147.381 81.2803L145.254 75.5762C148.927 73.127 151.473 70.4844 152.891 67.6485C154.374 64.8126 155.405 61.0421 155.985 56.337ZM156.759 141.512C162.688 141.512 167.361 141.447 170.777 141.318L152.408 93.752H152.021L133.555 141.125C139.614 141.383 147.348 141.512 156.759 141.512Z" fill="black"/>
</g>
</svg>
