<svg width="231" height="205" viewBox="0 0 231 205" fill="none" xmlns="http://www.w3.org/2000/svg">
<mask id="mask0_27_22" style="mask-type:alpha" maskUnits="userSpaceOnUse" x="0" y="0" width="231" height="205">
<rect x="0.733398" y="0.621277" width="190.563" height="110.204" fill="#D9D9D9"/>
<rect x="12.9021" y="152.626" width="218.015" height="52.1267" fill="#D9D9D9"/>
</mask>
<g mask="url(#mask0_27_22)">
<path d="M1.80249 1.50214C16.24 2.01776 27.4548 2.27557 35.447 2.27557C43.4392 2.27557 54.6541 2.01776 69.0916 1.50214C69.3494 2.53339 69.4783 3.24237 69.4783 3.62909C69.4783 4.33807 69.3494 5.14374 69.0916 6.04608C66.1267 6.30389 63.7097 6.59393 61.8406 6.9162C60.0359 7.17401 57.78 7.62518 55.073 8.26971C52.4304 8.91425 50.4001 9.84882 48.9822 11.0734C47.5642 12.2336 46.823 13.6516 46.7585 15.3273C45.9207 34.4055 45.5017 52.0334 45.5017 68.2111H48.3054L103.123 15.3273C103.961 14.1027 104.38 13.1682 104.38 12.5236C104.38 11.299 104.025 10.3 103.316 9.52655C102.672 8.68866 101.447 8.07635 99.6423 7.68964C97.9021 7.23846 96.1296 6.9162 94.325 6.72284C92.5847 6.52948 89.9744 6.30389 86.4939 6.04608C86.2361 4.88593 86.1072 4.08026 86.1072 3.62909C86.1072 3.24237 86.2361 2.53339 86.4939 1.50214C101.06 2.01776 110.632 2.27557 115.208 2.27557C118.366 2.27557 127.228 2.01776 141.795 1.50214C142.052 2.53339 142.181 3.24237 142.181 3.62909C142.181 4.08026 142.052 4.88593 141.795 6.04608C139.023 6.30389 136.8 6.56171 135.124 6.81952C133.512 7.07733 131.418 7.5285 128.84 8.17303C126.326 8.75311 123.909 9.65546 121.589 10.8801C119.333 12.0402 117.141 13.5226 115.014 15.3273L65.1277 62.7971L126.519 125.252C136.832 134.469 145.887 139.271 153.686 139.657C153.944 140.689 154.073 141.559 154.073 142.268C154.073 143.041 153.944 143.75 153.686 144.395C144.341 143.879 134.028 143.621 122.749 143.621C112.63 143.621 100.416 143.879 86.1072 144.395C85.8494 143.621 85.7205 142.848 85.7205 142.074C85.7205 141.237 85.8494 140.431 86.1072 139.657C92.3591 139.464 96.4841 138.916 98.4822 138.014C100.545 137.047 101.576 135.404 101.576 133.083C101.576 132.245 101.35 131.44 100.899 130.666C100.448 129.893 99.6423 128.894 98.4822 127.669C97.3865 126.38 96.7097 125.574 96.4519 125.252L49.2722 76.3322L45.5017 76.5256C45.5017 90.3185 45.8562 108.269 46.5652 130.376C46.6296 132.052 47.3708 133.502 48.7888 134.727C50.2068 135.887 52.2371 136.789 54.8796 137.434C57.5867 138.078 59.8425 138.562 61.6472 138.884C63.5164 139.142 65.9333 139.4 68.8982 139.657C69.156 140.431 69.2849 141.301 69.2849 142.268C69.2849 142.783 69.156 143.428 68.8982 144.201C57.9412 143.815 46.7263 143.621 35.2537 143.621C23.6521 143.621 12.4373 143.815 1.60913 144.201C1.35132 143.428 1.22241 142.783 1.22241 142.268C1.22241 141.172 1.35132 140.302 1.60913 139.657C3.54272 139.464 5.0896 139.303 6.24976 139.174C7.40991 139.045 8.98901 138.82 10.9871 138.497C13.0496 138.175 14.6931 137.82 15.9177 137.434C17.2068 136.983 18.5281 136.435 19.8816 135.79C21.2351 135.146 22.2341 134.372 22.8787 133.47C23.5876 132.568 23.9421 131.536 23.9421 130.376C24.7156 110.202 25.1023 89.8674 25.1023 69.3713C25.1023 48.4885 24.78 30.4738 24.1355 15.3273C24.071 13.6516 23.3298 12.2336 21.9119 11.0734C20.4939 9.84882 18.4314 8.91425 15.7244 8.26971C13.0818 7.62518 10.8259 7.17401 8.95679 6.9162C7.1521 6.59393 4.76733 6.30389 1.80249 6.04608C1.54468 4.88593 1.41577 4.08026 1.41577 3.62909C1.41577 2.98456 1.54468 2.27557 1.80249 1.50214Z" fill="black"/>
<path d="M156.618 56.4751C157.584 55.7661 158.616 55.3149 159.711 55.1216L212.595 187.186C213.24 188.797 214.303 190.183 215.786 191.343C217.268 192.439 219.105 193.309 221.296 193.954C223.552 194.534 225.486 194.985 227.097 195.307C228.773 195.565 230.803 195.823 233.188 196.081C233.446 197.112 233.575 197.982 233.575 198.691C233.575 199.464 233.446 200.173 233.188 200.818C219.266 200.302 208.857 200.044 201.96 200.044C194.484 200.044 183.656 200.302 169.476 200.818C169.218 200.044 169.089 199.271 169.089 198.498C169.089 197.66 169.218 196.854 169.476 196.081C182.496 194.663 189.005 192.213 189.005 188.733C189.005 187.637 188.876 186.509 188.619 185.349L174.6 149.384C170.346 149.255 164.61 149.191 157.391 149.191C153.975 149.191 145.113 149.32 130.804 149.578L116.012 187.186V188.346C116.012 188.991 116.109 189.603 116.302 190.183C116.56 190.763 116.947 191.279 117.462 191.73C118.042 192.181 118.59 192.568 119.106 192.89C119.622 193.212 120.331 193.535 121.233 193.857C122.2 194.115 123.005 194.34 123.65 194.534C124.359 194.663 125.293 194.824 126.454 195.017C127.678 195.21 128.613 195.372 129.257 195.5C129.902 195.565 130.836 195.662 132.061 195.791C133.35 195.919 134.252 196.016 134.768 196.081C135.026 197.112 135.155 197.982 135.155 198.691C135.155 199.078 135.026 199.787 134.768 200.818C120.331 200.302 112.209 200.044 110.405 200.044C106.924 200.044 97.9653 200.302 83.5278 200.818C83.27 200.044 83.1411 199.271 83.1411 198.498C83.1411 197.66 83.27 196.854 83.5278 196.081C96.9341 194.534 104.572 191.247 106.441 186.219L148.013 81.4185L145.886 75.7144C149.56 73.2651 152.106 70.6226 153.524 67.7866C155.006 64.9507 156.038 61.1802 156.618 56.4751ZM157.391 141.65C163.321 141.65 167.994 141.585 171.41 141.457L153.041 93.8901H152.654L134.188 141.263C140.247 141.521 147.981 141.65 157.391 141.65Z" fill="black"/>
</g>
</svg>
