<svg width="789" height="301" viewBox="0 0 789 301" fill="none" xmlns="http://www.w3.org/2000/svg">
<g clip-path="url(#clip0_16_246)">
<path d="M344.129 54.7725H335.032V86.2674H344.129V54.7725Z" fill="#F2F2F2"/>
<path d="M350.137 80.3426L328.011 54.0165L283.597 54.4225L256.654 80.6681L257.198 81.0181H257.004V135.609H350.078V81.0181L350.137 80.3426Z" fill="#F2F2F2"/>
<path d="M328.034 54.0726L300.392 86.4839V135.609H350.078V80.3182L328.034 54.0726Z" fill="#E6E6E6"/>
<path d="M330.483 108.442H320.336V117.412H330.483V108.442Z" fill="#3F3D56"/>
<path d="M330.483 92.9163H320.336V101.744H330.483V92.9163Z" fill="#3F3D56"/>
<path d="M330.483 108.442H320.336V117.412H330.483V108.442Z" fill="white"/>
<path d="M330.483 92.9163H320.336V101.744H330.483V92.9163Z" fill="white"/>
<path d="M285.389 106.062H275.241V115.032H285.389V106.062Z" fill="white"/>
<path d="M285.389 90.5362H275.241V99.3639H285.389V90.5362Z" fill="white"/>
<path d="M272.338 54.7725H263.24V86.2674H272.338V54.7725Z" fill="#F2F2F2"/>
<path d="M278.346 80.3426L256.219 54.0165L211.805 54.4225L184.862 80.6681L185.407 81.0181H185.212V135.609H278.286V81.0181L278.346 80.3426Z" fill="#F2F2F2"/>
<path d="M256.242 54.0726L228.6 86.4839V135.609H278.286V80.3182L256.242 54.0726Z" fill="#E6E6E6"/>
<path d="M258.692 108.442H248.545V117.412H258.692V108.442Z" fill="#3F3D56"/>
<path d="M258.692 92.9163H248.545V101.744H258.692V92.9163Z" fill="#3F3D56"/>
<path d="M258.692 108.442H248.545V117.412H258.692V108.442Z" fill="white"/>
<path d="M258.692 92.9163H248.545V101.744H258.692V92.9163Z" fill="white"/>
<path d="M213.597 106.062H203.45V115.032H213.597V106.062Z" fill="white"/>
<path d="M213.597 90.5362H203.45V99.3639H213.597V90.5362Z" fill="white"/>
<path d="M198.828 27.5918H186.672V69.6765H198.828V27.5918Z" fill="#F2F2F2"/>
<path d="M207 69.5898L177.651 27L118.738 27.6567L83 70.1168L83.7219 70.683H83.4641V159H206.921V70.683L207 69.5898Z" fill="#F2F2F2"/>
<path d="M177.32 26.6565L140.384 69.966V135.609H206.776V61.7271L177.32 26.6565Z" fill="#E6E6E6"/>
<path d="M180.593 99.3076H167.034V111.294H180.593V99.3076Z" fill="#3F3D56"/>
<path d="M180.593 78.5611H167.034V90.3571H180.593V78.5611Z" fill="#3F3D56"/>
<path d="M180.593 99.3076H167.034V111.294H180.593V99.3076Z" fill="white"/>
<path d="M180.593 78.5611H167.034V90.3571H180.593V78.5611Z" fill="white"/>
<path d="M120.336 96.1272H106.777V108.113H120.336V96.1272Z" fill="white"/>
<path d="M120.336 75.3806H106.777V87.1766H120.336V75.3806Z" fill="white"/>
<path d="M362.771 135.34H72V135.943H362.771V135.34Z" fill="#3F3D56"/>
<path d="M117.812 124.246C122.659 124.246 126.589 116.227 126.589 106.334C126.589 96.4414 122.659 88.4218 117.812 88.4218C112.964 88.4218 109.034 96.4414 109.034 106.334C109.034 116.227 112.964 124.246 117.812 124.246Z" fill="#3F3D56"/>
<path d="M118.622 135.653C115.107 114.558 118.587 93.5391 118.622 93.3295L119.306 93.4453C119.271 93.654 115.811 114.562 119.306 135.539L118.622 135.653Z" fill="#6C63FF"/>
<path d="M125.539 102.482L117.602 106.728L117.929 107.34L125.867 103.094L125.539 102.482Z" fill="#6C63FF"/>
<path d="M109.552 104.609L109.225 105.221L117.161 109.469L117.489 108.858L109.552 104.609Z" fill="#6C63FF"/>
<path d="M96.7214 113.743C106.203 113.743 113.889 98.0582 113.889 78.7095C113.889 59.3608 106.203 43.6755 96.7214 43.6755C87.2397 43.6755 79.5533 59.3608 79.5533 78.7095C79.5533 98.0582 87.2397 113.743 96.7214 113.743Z" fill="#6C63FF"/>
<path d="M98.6337 136C91.7668 94.7949 98.5644 53.7398 98.6338 53.33L99.3177 53.4458C99.2484 53.8547 92.4708 94.7993 99.3178 135.886L98.6337 136Z" fill="#3F3D56"/>
<path d="M111.993 71.4683L96.4678 79.7733L96.795 80.3851L112.32 72.0801L111.993 71.4683Z" fill="#3F3D56"/>
<path d="M80.4106 75.6286L80.0833 76.2403L95.6059 84.5496L95.9333 83.9379L80.4106 75.6286Z" fill="#3F3D56"/>
<path d="M137.383 105.565C150.358 105.565 160.876 84.1006 160.876 57.6234C160.876 31.1462 150.358 9.68222 137.383 9.68222C124.408 9.68222 113.889 31.1462 113.889 57.6234C113.889 84.1006 124.408 105.565 137.383 105.565Z" fill="#6C63FF"/>
<path d="M140.126 136C130.732 79.6349 140.031 23.4755 140.126 22.9149L140.81 23.0308C140.715 23.5904 131.436 79.6393 140.81 135.886L140.126 136Z" fill="#3F3D56"/>
<path d="M158.341 47.827L137.096 59.1918L137.423 59.8035L158.668 48.4388L158.341 47.827Z" fill="#3F3D56"/>
<path d="M115.002 53.5202L114.675 54.1319L135.917 65.5022L136.244 64.8906L115.002 53.5202Z" fill="#3F3D56"/>
<path d="M334.742 124.246C339.59 124.246 343.519 116.227 343.519 106.334C343.519 96.4414 339.59 88.4218 334.742 88.4218C329.894 88.4218 325.964 96.4414 325.964 106.334C325.964 116.227 329.894 124.246 334.742 124.246Z" fill="#3F3D56"/>
<path d="M333.931 135.653C337.447 114.558 333.967 93.5391 333.931 93.3295L333.247 93.4453C333.283 93.654 336.743 114.562 333.247 135.539L333.931 135.653Z" fill="#6C63FF"/>
<path d="M327.014 102.482L326.687 103.094L334.624 107.34L334.951 106.728L327.014 102.482Z" fill="#6C63FF"/>
<path d="M343.001 104.609L335.065 108.858L335.392 109.469L343.329 105.221L343.001 104.609Z" fill="#6C63FF"/>
<path d="M355.832 113.743C365.314 113.743 373 98.0582 373 78.7095C373 59.3608 365.314 43.6755 355.832 43.6755C346.35 43.6755 338.664 59.3608 338.664 78.7095C338.664 98.0582 346.35 113.743 355.832 113.743Z" fill="#6C63FF"/>
<path d="M353.92 136C360.786 94.7949 353.989 53.7398 353.919 53.33L353.236 53.4458C353.305 53.8547 360.082 94.7993 353.235 135.886L353.92 136Z" fill="#3F3D56"/>
<path d="M340.56 71.4683L340.233 72.08L355.758 80.385L356.085 79.7733L340.56 71.4683Z" fill="#3F3D56"/>
<path d="M372.143 75.6286L356.62 83.938L356.947 84.5496L372.47 76.2403L372.143 75.6286Z" fill="#3F3D56"/>
<path d="M315.171 105.565C328.146 105.565 338.664 84.1006 338.664 57.6234C338.664 31.1462 328.146 9.68222 315.171 9.68222C302.196 9.68222 291.677 31.1462 291.677 57.6234C291.677 84.1006 302.196 105.565 315.171 105.565Z" fill="#6C63FF"/>
<path d="M312.428 136C321.821 79.6349 312.523 23.4755 312.428 22.9149L311.744 23.0308C311.839 23.5904 321.117 79.6393 311.744 135.886L312.428 136Z" fill="#3F3D56"/>
<path d="M294.213 47.827L293.885 48.4388L315.13 59.8036L315.457 59.1918L294.213 47.827Z" fill="#3F3D56"/>
<path d="M337.551 53.5202L316.309 64.8905L316.637 65.5022L337.878 54.1318L337.551 53.5202Z" fill="#3F3D56"/>
<path d="M249.851 30.6103L252.628 28.3891C250.471 28.1511 249.585 29.3277 249.222 30.259C247.537 29.5591 245.702 30.4764 245.702 30.4764L251.258 32.4936C250.978 31.7449 250.49 31.0916 249.851 30.6103Z" fill="#3F3D56"/>
<path d="M181.981 11.001L184.758 8.77983C182.601 8.5418 181.714 9.71843 181.352 10.6498C179.666 9.94985 177.832 10.8671 177.832 10.8671L183.388 12.8843C183.107 12.1356 182.619 11.4823 181.981 11.001Z" fill="#3F3D56"/>
<path d="M292.685 2.25232L295.462 0.0311068C293.305 -0.206919 292.418 0.969714 292.055 1.90103C290.37 1.20113 288.536 2.11838 288.536 2.11838L294.091 4.13563C293.811 3.38689 293.323 2.73359 292.685 2.25232Z" fill="#3F3D56"/>
<path d="M298.291 131.85C297.553 131.85 296.828 132.045 296.189 132.414C295.54 131.827 294.735 131.441 293.871 131.303C293.007 131.165 292.121 131.281 291.322 131.637C290.522 131.992 289.843 132.572 289.367 133.306C288.891 134.04 288.638 134.897 288.639 135.772H302.499C302.424 134.707 301.948 133.711 301.167 132.983C300.386 132.255 299.359 131.851 298.291 131.85Z" fill="#3F3D56"/>
<path d="M157.423 131.85C156.685 131.85 155.96 132.045 155.321 132.414C154.672 131.827 153.866 131.441 153.002 131.303C152.138 131.165 151.253 131.281 150.453 131.637C149.654 131.992 148.975 132.572 148.499 133.306C148.022 134.04 147.769 134.897 147.771 135.772H161.631C161.555 134.707 161.079 133.711 160.299 132.983C159.518 132.255 158.49 131.851 157.423 131.85Z" fill="#3F3D56"/>
<path d="M229.516 131.85C228.778 131.85 228.053 132.045 227.414 132.414C226.765 131.827 225.96 131.441 225.096 131.303C224.232 131.165 223.346 131.281 222.547 131.637C221.747 131.992 221.068 132.572 220.592 133.306C220.116 134.04 219.863 134.897 219.864 135.772H233.724C233.649 134.707 233.173 133.711 232.392 132.983C231.611 132.255 230.584 131.851 229.516 131.85Z" fill="#3F3D56"/>
<path d="M214.304 121.948H174.315V123.238H180.552V135.494H181.842V123.238H206.132V135.494H207.422V123.238H214.304V121.948Z" fill="#3F3D56"/>
<path d="M214.383 118.088H174.394V119.378H214.383V118.088Z" fill="#3F3D56"/>
<path d="M214.383 114.863H174.394V116.153H214.383V114.863Z" fill="#3F3D56"/>
<path d="M214.383 111.637H174.394V112.928H214.383V111.637Z" fill="#3F3D56"/>
<path d="M276.744 121.948H236.756V123.238H242.992V135.494H244.282V123.238H268.573V135.494H269.863V123.238H276.744V121.948Z" fill="#3F3D56"/>
<path d="M276.823 118.088H236.835V119.378H276.823V118.088Z" fill="#3F3D56"/>
<path d="M276.823 114.863H236.835V116.153H276.823V114.863Z" fill="#3F3D56"/>
<path d="M276.823 111.637H236.835V112.928H276.823V111.637Z" fill="#3F3D56"/>
</g>
<g clip-path="url(#clip1_16_246)">
<path d="M476.814 19.9911C481.805 19.9911 485.851 15.9637 485.851 10.9956C485.851 6.02745 481.805 2 476.814 2C471.823 2 467.777 6.02745 467.777 10.9956C467.777 15.9637 471.823 19.9911 476.814 19.9911Z" fill="#FF6884"/>
<path d="M455.369 130.163C454.127 123.167 453.516 116.07 453.423 108.967C453.329 101.914 453.742 94.8621 454.535 87.8549C455.338 80.7576 456.541 73.711 458.004 66.7207C459.466 59.736 461.19 52.8105 463.049 45.9216C464.908 39.0327 466.908 32.1692 468.92 25.3169C469.166 24.4776 469.412 23.6384 469.661 22.7991C469.814 22.2752 468.996 22.0527 468.843 22.5738C466.82 29.4598 464.794 36.3431 462.893 43.2658C460.983 50.2138 459.198 57.1985 457.667 64.2395C456.153 71.1931 454.888 78.2031 453.997 85.2638C453.106 92.3245 452.582 99.4472 452.563 106.573C452.543 113.698 453.021 120.725 454.107 127.715C454.246 128.608 454.396 129.495 454.552 130.385C454.648 130.92 455.466 130.692 455.369 130.16V130.163Z" fill="#F2F2F2"/>
<path d="M468.105 26.0576C467.61 23.5679 468.057 21.0022 468.156 18.4646C468.255 15.9271 467.915 13.1754 466.178 11.3166C464.794 9.83239 462.76 9.16772 460.819 8.5622C460.318 8.40448 459.732 8.26084 459.3 8.55657C458.852 8.86355 458.796 9.48879 458.787 10.0295C458.725 13.443 458.833 16.9522 460.137 20.1122C461.441 23.2722 464.175 26.0464 467.573 26.5054" fill="#F2F2F2"/>
<path d="M461.031 49.997C460.536 47.5073 460.983 44.9415 461.082 42.404C461.181 39.8664 460.842 37.1148 459.104 35.256C457.721 33.7717 455.686 33.1071 453.745 32.5015C453.244 32.3438 452.659 32.2002 452.226 32.4959C451.779 32.8029 451.722 33.4281 451.714 33.9689C451.651 37.3823 451.759 40.8916 453.063 44.0515C454.368 47.2115 457.101 49.9857 460.499 50.4448" fill="#F2F2F2"/>
<path d="M469.293 23.2018C471.438 21.8274 474.001 21.3007 476.406 20.4643C478.811 19.6278 481.262 18.2985 482.362 16.0087C483.242 14.1837 483.115 12.0573 482.971 10.0352C482.934 9.51413 482.855 8.91706 482.419 8.62697C481.966 8.32561 481.364 8.50305 480.854 8.69174C477.64 9.88871 474.403 11.2744 471.927 13.6401C469.452 16.0059 467.864 19.5574 468.682 22.8723" fill="#F2F2F2"/>
<path d="M464.2 42.0716C466.345 40.6972 468.908 40.1705 471.313 39.3341C473.718 38.4976 476.169 37.1683 477.269 34.8785C478.149 33.0535 478.022 30.9271 477.878 28.905C477.841 28.3839 477.762 27.7869 477.326 27.4968C476.873 27.1954 476.271 27.3729 475.761 27.5616C472.547 28.7585 469.31 30.1442 466.834 32.51C464.359 34.8757 462.771 38.4272 463.589 41.7421" fill="#F2F2F2"/>
<path d="M433.319 48.6648L431.308 36.1516L444.889 30.6427L446.901 49.6674L433.319 48.6648Z" fill="#FFB6B6"/>
<path d="M422.18 71.5451C422.18 71.5451 422.01 105.083 409.444 99.4443C402.908 96.5125 393.263 84.1485 393.263 84.1485L397.25 80.3492L408.129 89.4011L410.177 71.3959L422.18 71.5395V71.5451Z" fill="#FFB6B6"/>
<path d="M427.468 52.8978C427.468 52.8978 419.141 50.5518 414.645 56.9957C410.149 63.4396 407.854 87.4127 407.854 87.4127L419.738 93.3271L427.468 52.8978Z" fill="#E6E6E6"/>
<path d="M472.635 70.7284L477.917 90.6121L490.729 128.408L484.057 132.176L467.287 94.5663L463.049 74.4995L472.635 70.7284Z" fill="#FFB6B6"/>
<path d="M447.175 42.3927L432.015 42.6631L430.764 47.1806L418.606 54.1793L419.871 97.7348L457.503 101.114L462.924 71.4719L464.294 54.644L448.449 47.8847L447.175 42.3927Z" fill="#E6E6E6"/>
<path d="M454.914 57.5421C454.914 57.5421 461.744 50.856 466.933 55.5143C472.123 60.1726 478.345 91.0318 478.345 91.0318L467.363 96.4083L454.914 57.5421Z" fill="#E6E6E6"/>
<path d="M455.522 61.685C455.522 61.685 449.297 61.4033 444.204 62.8115C439.111 64.2197 424.681 61.1217 424.681 61.1217C428.158 72.9083 425.847 85.23 420.012 97.8756C412.311 107.285 420.96 125.138 407.704 134.629H462.924L460.898 110.409L457.786 101.396C457.786 101.396 459.483 99.7062 458.918 99.143C458.352 98.5797 451.278 71.2607 455.522 61.685Z" fill="#6C63FF"/>
<path d="M428.642 46.7581L425.247 63.9381L430.057 65.3463L428.925 59.1502L430.623 45.9132L428.642 46.7581Z" fill="#3F3D56"/>
<path d="M448.732 46.4764L450.653 69.43L453.259 69.2892L451.561 47.603L448.732 46.4764Z" fill="#3F3D56"/>
<path d="M459.234 101.396C459.234 101.396 444.063 105.48 431.33 104.072L419.546 96.3998L419.022 97.7348C419.022 97.7348 429.242 110.487 436.865 109.744C444.487 109 460.049 104.494 460.049 103.368C460.049 102.241 459.234 101.396 459.234 101.396Z" fill="#3F3D56"/>
<path d="M396.351 83.8798C398.038 82.595 397.783 79.4447 395.783 76.8434C393.783 74.2421 390.794 73.1749 389.108 74.4597C387.422 75.7445 387.676 78.8947 389.676 81.496C391.676 84.0973 394.665 85.1645 396.351 83.8798Z" fill="#FFB6B6"/>
<path d="M492 138.896C494.225 137.81 494.658 134.145 492.966 130.711C491.274 127.277 488.099 125.373 485.874 126.459C483.649 127.546 483.216 131.21 484.908 134.644C486.599 138.078 489.775 139.982 492 138.896Z" fill="#FFB6B6"/>
<path d="M458.151 104.252C459.826 106.35 459.84 109.457 462.064 111.18C462.986 111.896 464.313 112.276 465.448 111.859C466.571 111.448 467.208 110.411 467.335 109.259C467.471 108.034 466.959 106.868 466.223 105.911C465.428 104.877 464.407 103.9 463.3 103.201C462.276 102.554 461.028 102.216 459.846 102.607C458.652 103.001 457.944 103.962 457.916 105.212C457.893 106.085 458.018 106.973 458.083 107.84L458.278 110.487L458.68 115.92C458.719 116.458 459.568 116.464 459.529 115.92L458.901 107.423C458.85 106.75 458.773 106.074 458.765 105.401C458.756 104.855 458.85 104.32 459.246 103.92C459.942 103.218 461.045 103.156 461.934 103.463C463.037 103.844 463.948 104.708 464.755 105.519C465.538 106.311 466.308 107.263 466.478 108.395C466.614 109.296 466.353 110.38 465.53 110.89C464.627 111.448 463.425 111.149 462.624 110.549C461.574 109.764 461.023 108.462 460.567 107.28C460.078 106.007 459.614 104.731 458.753 103.655C458.414 103.23 457.817 103.829 458.154 104.252H458.151Z" fill="#3F3D56"/>
<path d="M457.95 103.37C457.192 104.322 456.736 105.426 456.306 106.553C455.89 107.643 455.468 108.795 454.688 109.688C454.008 110.465 452.984 111.037 451.917 110.876C450.89 110.721 450.274 109.814 450.203 108.829C450.124 107.736 450.639 106.739 451.326 105.916C452.07 105.026 452.976 104.151 453.98 103.556C454.854 103.038 455.915 102.785 456.878 103.232C457.293 103.427 457.65 103.748 457.817 104.184C458.043 104.781 457.93 105.474 457.885 106.094C457.65 109.274 457.415 112.456 457.18 115.636C457.141 116.179 457.989 116.177 458.029 115.636C458.267 112.431 458.502 109.228 458.739 106.023C458.79 105.319 458.872 104.576 458.615 103.9C458.417 103.382 458.055 102.959 457.588 102.661C456.597 102.024 455.338 102.033 454.277 102.469C453.063 102.968 452.042 103.908 451.151 104.846C450.279 105.767 449.524 106.86 449.374 108.144C449.246 109.243 449.594 110.456 450.494 111.158C451.473 111.921 452.795 111.862 453.878 111.363C456.804 110.017 456.747 106.226 458.553 103.967C458.889 103.545 458.292 102.945 457.953 103.37H457.95Z" fill="#3F3D56"/>
<path d="M407.28 66.3123C407.28 66.3123 400.866 72.3619 390.063 66.3123L391.752 86.4748C391.752 86.4748 391.905 86.5227 392.176 86.5988C392.372 87.3057 392.909 87.8887 393.639 88.1168C395.99 88.8575 400.512 89.8658 403.568 87.9506C404.204 87.5507 404.581 86.8438 404.581 86.0918V86.0327C404.818 85.8609 405.045 85.675 405.257 85.4638L407.283 66.3095L407.28 66.3123Z" fill="#3F3D56"/>
<path d="M398.67 69.3371C403.424 69.3371 407.277 67.9829 407.277 66.3123C407.277 64.6418 403.424 63.2875 398.67 63.2875C393.916 63.2875 390.063 64.6418 390.063 66.3123C390.063 67.9829 393.916 69.3371 398.67 69.3371Z" fill="#6C63FF"/>
<path d="M489.9 119.26C489.9 119.26 483.486 125.31 472.683 119.26L474.372 139.423C474.372 139.423 474.525 139.471 474.796 139.547C474.992 140.254 475.529 140.837 476.259 141.065C478.611 141.806 483.132 142.814 486.188 140.899C486.824 140.499 487.201 139.792 487.201 139.04V138.981C487.438 138.809 487.665 138.623 487.877 138.412L489.903 119.258L489.9 119.26Z" fill="#3F3D56"/>
<path d="M481.29 122.285C486.044 122.285 489.897 120.931 489.897 119.26C489.897 117.59 486.044 116.236 481.29 116.236C476.536 116.236 472.683 117.59 472.683 119.26C472.683 120.931 476.536 122.285 481.29 122.285Z" fill="#6C63FF"/>
<path d="M436.752 40.1734C444.399 40.1734 450.599 34.0023 450.599 26.39C450.599 18.7776 444.399 12.6065 436.752 12.6065C429.104 12.6065 422.904 18.7776 422.904 26.39C422.904 34.0023 429.104 40.1734 436.752 40.1734Z" fill="#FFB6B6"/>
<path d="M432.626 9.03818C435.399 8.41012 437.45 5.48107 439.745 5.79088C444.728 6.46118 449.031 10.5506 449.555 11.1392C451.734 13.5923 452.387 16.0961 453.137 18.9829C453.932 22.0386 453.114 26.573 452.331 29.7161C451.185 34.3153 447.999 35.2306 448.389 38.2723C448.664 40.4015 450.39 41.2464 452.331 43.263C456.003 47.082 457.022 51.5432 458.063 56.1001C460.542 66.9544 456.974 77.8989 455.556 77.8511C455.256 77.8398 454.999 77.1301 454.481 75.7106C452.899 71.3621 453.677 70.0328 452.69 68.5795C450.927 65.98 447.155 68.3457 443.019 65.7265C439.759 63.6621 438.65 60.0092 438.005 57.8829C437.634 56.6605 436.067 51.5009 438.364 46.4737C440.492 41.8182 443.588 41.6097 445.848 36.129C446.324 34.9743 447.897 31.9777 446.244 29.7161C445.407 28.5699 445.574 35.0701 444.323 34.0055C441.279 31.42 442.631 20.8614 439.796 17.9492C438.441 16.5551 436.387 16.0116 434.782 16.1665C430.968 16.5326 424.192 20.2277 423.595 24.2974C422.635 30.8455 424.814 33.7041 430.125 38.63C430.699 39.1623 428.529 38.8778 427.618 38.63C422.983 37.3739 421.173 31.406 420.813 30.0738C419.755 26.1647 420.553 22.9399 421.173 20.4474C421.962 17.2592 422.811 13.8289 425.83 11.5335C427.615 10.176 429.443 9.76199 432.635 9.03818H432.626Z" fill="#2F2E41"/>
<path d="M446.351 100.859L441.253 115.185L453.453 122.877" stroke="black" stroke-width="6"/>
</g>
<g clip-path="url(#clip2_16_246)">
<path d="M90 299.553C90 299.761 90.1666 299.928 90.3741 299.928H319.626C319.833 299.928 320 299.761 320 299.553C320 299.345 319.833 299.178 319.626 299.178H90.3741C90.1666 299.178 90 299.345 90 299.553Z" fill="#3F3D58"/>
<path d="M228.505 163.922L236.556 166.575V154.961H229.251L228.505 163.922Z" fill="#F8A8AB"/>
<path d="M235.559 158.174C239.99 158.174 243.582 154.575 243.582 150.135C243.582 145.695 239.99 142.096 235.559 142.096C231.129 142.096 227.537 145.695 227.537 150.135C227.537 154.575 231.129 158.174 235.559 158.174Z" fill="#F8A8AB"/>
<path d="M233.516 150.765L234.623 152.11L236.622 148.601C236.622 148.601 239.174 148.733 239.174 146.834C239.174 144.934 241.516 144.881 241.516 144.881C241.516 144.881 244.833 139.079 237.964 140.606C237.964 140.606 233.199 137.337 230.832 140.131C230.832 140.131 223.567 143.797 225.645 150.179L229.1 156.759L229.882 155.269C229.882 155.269 229.408 149.017 233.516 150.759V150.765Z" fill="#2F2E43"/>
<path d="M232.674 284.458H226.091V293.817H232.674V284.458Z" fill="#F8A8AB"/>
<path d="M231.944 299.178C230.819 299.279 225.186 299.726 224.903 298.431C224.645 297.244 225.026 296.003 225.079 295.833C225.62 290.434 225.821 290.374 225.944 290.339C226.135 290.282 226.695 290.55 227.603 291.136L227.66 291.174L227.672 291.24C227.688 291.325 228.091 293.306 229.999 293.001C231.306 292.793 231.731 292.503 231.866 292.361C231.756 292.311 231.618 292.223 231.52 292.072C231.379 291.851 231.353 291.568 231.448 291.227C231.693 290.33 232.429 289.004 232.46 288.95L232.545 288.799L240.026 293.858L244.647 295.181C244.996 295.281 245.276 295.53 245.417 295.864C245.612 296.33 245.493 296.872 245.116 297.212C244.276 297.968 242.61 299.263 240.859 299.424C240.394 299.468 239.778 299.483 239.086 299.483C236.198 299.483 231.979 299.184 231.948 299.178H231.944Z" fill="#2F2E43"/>
<path d="M241.079 203.775L223.812 202.89C223.812 202.89 221.165 212.945 224.51 223.422L224.912 286.512H234.67L243.868 221.431L241.079 203.775Z" fill="#2F2E43"/>
<path d="M238.169 161.689L228.691 156.649C228.691 156.649 218.478 171.605 219.889 179.707C221.304 187.808 223.812 202.89 223.812 202.89L244.72 203.776L241.07 174.075L238.169 161.689Z" fill="#E2E3E4"/>
<path d="M237.358 284.458H230.775V293.817H237.358V284.458Z" fill="#F8A8AB"/>
<path d="M236.628 299.178C235.503 299.279 229.87 299.726 229.587 298.431C229.329 297.244 229.709 296.003 229.763 295.833C230.304 290.434 230.505 290.374 230.627 290.339C230.819 290.282 231.379 290.55 232.287 291.136L232.344 291.174L232.356 291.24C232.372 291.325 232.774 293.306 234.682 293.001C235.99 292.793 236.414 292.503 236.55 292.361C236.44 292.311 236.301 292.223 236.204 292.072C236.062 291.851 236.037 291.568 236.132 291.227C236.377 290.33 237.112 289.004 237.144 288.95L237.229 288.799L244.71 293.858L249.331 295.181C249.68 295.281 249.96 295.53 250.101 295.864C250.296 296.33 250.177 296.872 249.799 297.212C248.96 297.968 247.294 299.263 245.543 299.424C245.078 299.468 244.462 299.483 243.77 299.483C240.881 299.483 236.663 299.184 236.631 299.178H236.628Z" fill="#2F2E43"/>
<path d="M244.72 203.775L223.812 202.89C223.812 202.89 221.165 212.945 224.51 223.422L228.553 286.512H238.31L247.508 221.431L244.72 203.775Z" fill="#2F2E43"/>
<path d="M242.538 244.983C241.076 244.983 239.483 244.624 237.908 244.271C236.741 244.01 235.714 243.944 234.89 243.893C233.639 243.814 232.649 243.751 232.098 243.017C231.555 242.293 231.555 241.061 232.098 238.633C232.821 235.407 234.431 230.254 236.399 226.014C238.942 220.546 241.384 218.029 243.663 218.542C246.716 219.229 247.932 224.335 248.388 227.315C249.023 231.476 248.966 236.421 248.25 239.622C247.3 243.859 245.122 244.98 242.535 244.98H242.538V244.983ZM243.094 219.428C241.419 219.428 239.363 221.878 237.257 226.414C235.317 230.588 233.733 235.662 233.02 238.841C232.564 240.882 232.513 241.994 232.853 242.45C233.142 242.835 233.9 242.885 234.946 242.948C235.805 243.002 236.873 243.068 238.112 243.348C243.035 244.454 246.112 244.857 247.329 239.417C248.633 233.59 247.64 220.407 243.456 219.465C243.336 219.437 243.214 219.424 243.091 219.424H243.094V219.428Z" fill="#DFDFE0"/>
<path d="M262.446 284.153L215.561 284.461L208.277 281.103L212.521 237.726L216.79 237.943L260.714 240.183L262.446 284.153Z" fill="#6C63FF"/>
<path opacity="0.2" d="M215.561 284.461L208.277 281.103L212.521 237.726L216.79 237.943L215.561 284.461Z" fill="#272223"/>
<path d="M243.245 236.982C242.375 236.982 241.422 236.768 240.485 236.557C239.791 236.399 239.178 236.362 238.684 236.33C237.939 236.283 237.348 236.245 237.021 235.807C236.697 235.376 236.697 234.642 237.021 233.193C237.452 231.268 238.411 228.197 239.586 225.671C241.101 222.411 242.56 220.911 243.918 221.217C245.738 221.626 246.464 224.669 246.735 226.449C247.112 228.931 247.08 231.879 246.653 233.785C246.087 236.311 244.789 236.979 243.245 236.979V236.982ZM243.579 221.746C242.579 221.746 241.353 223.208 240.099 225.913C238.942 228.402 237.996 231.426 237.574 233.322C237.301 234.538 237.273 235.202 237.477 235.473C237.65 235.703 238.099 235.732 238.725 235.769C239.237 235.801 239.872 235.842 240.611 236.009C243.544 236.667 245.38 236.907 246.106 233.665C246.882 230.191 246.291 222.332 243.799 221.771C243.726 221.755 243.654 221.746 243.582 221.746H243.579Z" fill="#DFDFE0"/>
<path d="M255.112 260.339L227.16 260.522L222.816 258.522L225.346 232.657L227.893 232.786L254.081 234.122L255.112 260.339Z" fill="#E2E3E4"/>
<path opacity="0.2" d="M227.16 260.522L222.816 258.522L225.346 232.657L227.893 232.786L227.16 260.522Z" fill="#272223"/>
<path d="M244.88 219.525C245.348 221.831 244.49 223.938 242.969 224.231C241.447 224.524 239.835 222.889 239.369 220.584C239.171 219.664 239.203 218.713 239.461 217.805L237.609 208.006L242.393 207.247L243.711 216.986C244.305 217.73 244.704 218.599 244.88 219.525Z" fill="#F8A8AB"/>
<path d="M226.113 161.506C226.113 161.506 233.111 160.618 233.947 162.713C234.783 164.807 244.61 214.668 244.61 214.668H238.128L226.113 161.506Z" fill="#E2E3E4"/>
<path d="M177.496 172.178L170.467 174.494V164.357H176.845L177.496 172.178Z" fill="#F8A8AB"/>
<path d="M171.338 167.164C175.206 167.164 178.342 164.022 178.342 160.146C178.342 156.27 175.206 153.128 171.338 153.128C167.47 153.128 164.334 156.27 164.334 160.146C164.334 164.022 167.47 167.164 171.338 167.164Z" fill="#F8A8AB"/>
<path d="M173.262 159.449C172.089 159.415 171.319 158.227 170.863 157.144C170.407 156.06 169.939 154.816 168.851 154.369C167.962 154.003 166.393 156.476 165.692 155.818C164.96 155.131 165.673 151.606 166.45 150.973C167.226 150.34 168.289 150.217 169.288 150.17C171.728 150.056 174.183 150.255 176.575 150.756C178.056 151.064 179.577 151.53 180.646 152.601C181.997 153.962 182.343 156.013 182.441 157.931C182.541 159.894 182.428 161.947 181.476 163.664C180.523 165.381 178.53 166.647 176.619 166.209C176.427 165.17 176.622 164.102 176.698 163.044C176.77 161.988 176.694 160.848 176.05 160.007C175.406 159.166 174.032 158.832 173.284 159.579" fill="#2F2E43"/>
<path d="M181.878 161.881C182.579 161.368 183.418 160.936 184.28 161.043C185.21 161.157 185.999 161.925 186.238 162.836C186.477 163.746 186.21 164.748 185.631 165.491C185.056 166.234 184.198 166.726 183.293 166.972C182.768 167.113 182.192 167.173 181.693 166.959C180.957 166.641 180.558 165.699 180.847 164.949" fill="#2F2E43"/>
<path d="M175.176 284.978H168.594V294.336H175.176V284.978Z" fill="#F8A8AB"/>
<path d="M162.181 300C161.489 300 160.873 299.984 160.408 299.94C158.66 299.78 156.991 298.485 156.152 297.729C155.774 297.389 155.655 296.847 155.85 296.381C155.991 296.047 156.271 295.795 156.62 295.697L161.241 294.374L168.723 289.315L168.807 289.467C168.839 289.523 169.574 290.849 169.82 291.744C169.914 292.084 169.889 292.368 169.747 292.588C169.65 292.739 169.512 292.828 169.401 292.878C169.537 293.02 169.961 293.31 171.269 293.517C173.177 293.82 173.579 291.839 173.595 291.757L173.607 291.69L173.664 291.653C174.573 291.067 175.132 290.799 175.324 290.856C175.443 290.89 175.644 290.953 176.188 296.349C176.242 296.519 176.622 297.76 176.364 298.948C176.085 300.239 170.451 299.795 169.323 299.694C169.291 299.698 165.073 300 162.184 300H162.181Z" fill="#2F2E43"/>
<path d="M193.919 277.619L188.334 281.11L193.276 289.05L198.862 285.56L193.919 277.619Z" fill="#F8A8AB"/>
<path d="M186.499 298.718C185.726 298.718 185.015 298.623 184.509 298.535C184.012 298.447 183.623 298.05 183.541 297.553C183.484 297.193 183.588 296.831 183.833 296.563L187.055 292.991L190.733 284.732L190.884 284.814C190.941 284.846 192.264 285.58 192.946 286.21C193.207 286.449 193.336 286.704 193.33 286.966C193.327 287.148 193.258 287.293 193.188 287.397C193.377 287.447 193.889 287.466 195.109 286.95C196.888 286.197 196.184 284.301 196.153 284.222L196.128 284.159L196.156 284.099C196.618 283.119 196.948 282.597 197.143 282.543C197.265 282.508 197.467 282.455 200.777 286.748C200.912 286.862 201.89 287.715 202.298 288.859C202.741 290.103 197.728 292.714 196.718 293.224C196.687 293.25 191.441 297.071 189.284 298.157C188.429 298.589 187.417 298.721 186.496 298.721L186.499 298.718Z" fill="#2F2E43"/>
<path d="M180.023 206.718H161.593L159.921 223.897L167.239 287.375H176.647L172.884 250.713L188.146 283.812L196.508 277.947L184.591 247.046C184.591 247.046 188.847 220.127 185.502 213.421C182.158 206.714 180.023 206.718 180.023 206.718Z" fill="#2F2E43"/>
<path d="M189.19 207.763H159.921L168.7 169.844H181.454L189.19 207.763Z" fill="#6C63FF"/>
<path d="M152.65 169.098C152.181 166.792 153.04 164.685 154.561 164.392C156.082 164.099 157.695 165.734 158.16 168.039C158.358 168.959 158.327 169.91 158.069 170.818L159.921 180.617L155.136 181.376L153.819 171.637C153.225 170.893 152.826 170.024 152.65 169.098Z" fill="#F8A8AB"/>
<path d="M181.142 169.844H169.895L162.313 185.04L159.452 173.653L153.169 174.32C153.169 174.32 154.655 196.568 161.153 195.816C167.651 195.063 182.805 175.02 181.139 169.841H181.142V169.844Z" fill="#6C63FF"/>
<path d="M191.764 241.918C190.894 241.918 189.941 241.704 189.004 241.493C188.31 241.335 187.697 241.298 187.203 241.266C186.458 241.219 185.867 241.181 185.54 240.743C185.216 240.312 185.216 239.578 185.54 238.129C185.971 236.204 186.93 233.133 188.105 230.607C189.62 227.347 191.079 225.847 192.437 226.153C194.257 226.562 194.983 229.605 195.254 231.385C195.631 233.867 195.599 236.815 195.172 238.721C194.606 241.247 193.308 241.915 191.764 241.915V241.918ZM192.098 226.682C191.098 226.682 189.872 228.143 188.618 230.849C187.461 233.338 186.515 236.362 186.093 238.258C185.82 239.474 185.792 240.138 185.996 240.409C186.169 240.639 186.618 240.668 187.244 240.705C187.756 240.737 188.391 240.778 189.13 240.945C192.063 241.603 193.899 241.843 194.625 238.601C195.401 235.127 194.81 227.268 192.318 226.707C192.245 226.691 192.173 226.682 192.101 226.682H192.098Z" fill="#DFDFE0"/>
<path d="M203.634 265.272L175.682 265.455L171.338 263.454L173.868 237.59L176.415 237.719L202.603 239.055L203.634 265.272Z" fill="#E2E3E4"/>
<path opacity="0.2" d="M175.682 265.455L171.338 263.454L173.868 237.59L176.415 237.719L175.682 265.455Z" fill="#272223"/>
<path d="M193.701 227.63C194.169 229.936 193.311 232.043 191.789 232.336C190.268 232.629 188.655 230.994 188.19 228.688C187.992 227.769 188.024 226.817 188.281 225.91L186.43 216.111L191.214 215.352L192.531 225.091C193.125 225.835 193.525 226.704 193.701 227.63Z" fill="#F8A8AB"/>
<path d="M174.73 169.844C174.73 169.844 181.12 169.573 181.454 169.844C183.198 171.271 193.43 222.776 193.43 222.776H186.948L174.73 169.844Z" fill="#6C63FF"/>
</g>
<g clip-path="url(#clip3_16_246)">
<path d="M633.109 282.562H725.035C725.605 282.562 726.151 282.334 726.554 281.931C726.957 281.527 727.184 280.979 727.184 280.407V217.479C727.184 216.907 726.957 216.36 726.554 215.956C726.151 215.552 725.605 215.324 725.035 215.324H633.109C632.54 215.324 631.993 215.552 631.59 215.956C631.187 216.36 630.961 216.907 630.96 217.479V280.407C630.961 280.979 631.187 281.527 631.59 281.931C631.993 282.334 632.54 282.562 633.109 282.562Z" fill="white"/>
<path d="M633.109 282.562H725.035C725.605 282.562 726.151 282.334 726.554 281.931C726.957 281.527 727.184 280.979 727.184 280.407V217.479C727.184 216.907 726.957 216.36 726.554 215.956C726.151 215.552 725.605 215.324 725.035 215.324H633.109C632.54 215.324 631.993 215.552 631.59 215.956C631.187 216.36 630.961 216.907 630.96 217.479V280.407C630.961 280.979 631.187 281.527 631.59 281.931C631.993 282.334 632.54 282.562 633.109 282.562ZM725.035 215.803C725.478 215.803 725.903 215.98 726.216 216.294C726.53 216.608 726.706 217.034 726.707 217.479V280.407C726.706 280.852 726.53 281.278 726.216 281.592C725.903 281.906 725.478 282.083 725.035 282.084H633.109C632.666 282.083 632.241 281.906 631.928 281.592C631.614 281.278 631.438 280.852 631.438 280.407V217.479C631.438 217.034 631.614 216.608 631.928 216.294C632.241 215.98 632.666 215.803 633.109 215.803H725.035Z" fill="#3F3D56"/>
<path d="M668.431 282.184H689.713V246.862C689.712 246.025 689.38 245.221 688.789 244.629C688.198 244.037 687.397 243.704 686.561 243.703H671.583C670.747 243.704 669.946 244.037 669.355 244.629C668.764 245.221 668.432 246.025 668.431 246.862V282.184Z" fill="#E6E6E6"/>
<path d="M638.123 201.91H650.277V181.547C650.276 180.976 650.049 180.428 649.646 180.024C649.243 179.62 648.697 179.393 648.127 179.393H640.272C639.703 179.393 639.156 179.62 638.753 180.024C638.35 180.428 638.124 180.976 638.123 181.547V201.91Z" fill="white"/>
<path d="M638.123 201.91H650.277V181.547C650.276 180.976 650.049 180.428 649.646 180.024C649.243 179.62 648.697 179.393 648.127 179.393H640.272C639.703 179.393 639.156 179.62 638.753 180.024C638.35 180.428 638.124 180.976 638.123 181.547V201.91ZM649.799 201.431H638.601V181.547C638.601 181.103 638.777 180.677 639.091 180.363C639.404 180.049 639.829 179.872 640.272 179.871H648.127C648.57 179.872 648.995 180.049 649.309 180.363C649.622 180.677 649.798 181.103 649.799 181.547V201.431Z" fill="#3F3D56"/>
<path d="M706.646 210.484C693.72 210.484 683.242 199.98 683.242 187.022C683.242 174.064 693.72 163.559 706.646 163.559C719.571 163.559 730.049 174.064 730.049 187.022C730.049 199.98 719.571 210.484 706.646 210.484Z" fill="#F2F2F2"/>
<path d="M698.702 253.963H716.679C717.396 253.962 718.084 253.676 718.591 253.168C719.098 252.659 719.383 251.97 719.384 251.251V236.393C719.383 235.674 719.098 234.985 718.591 234.477C718.084 233.969 717.396 233.683 716.679 233.682H698.702C697.985 233.683 697.297 233.969 696.79 234.477C696.283 234.985 695.998 235.674 695.997 236.393V251.251C695.998 251.97 696.283 252.659 696.79 253.168C697.297 253.676 697.985 253.962 698.702 253.963Z" fill="#E6E6E6"/>
<path d="M641.049 253.963H659.026C659.743 253.962 660.431 253.676 660.938 253.168C661.445 252.659 661.73 251.97 661.731 251.251V236.393C661.73 235.674 661.445 234.985 660.938 234.477C660.431 233.969 659.743 233.683 659.026 233.682H641.049C640.332 233.683 639.645 233.969 639.138 234.477C638.631 234.985 638.345 235.674 638.345 236.393V251.251C638.345 251.97 638.631 252.659 639.138 253.168C639.645 253.676 640.332 253.962 641.049 253.963Z" fill="#E6E6E6"/>
<path d="M734.047 216.618V206.936C734.047 206.192 733.851 205.462 733.479 204.818C733.107 204.175 732.571 203.642 731.927 203.273L678.267 172.526C677.601 172.144 676.844 171.953 676.077 171.971C675.31 171.99 674.563 172.218 673.916 172.632L626.042 203.244C625.446 203.625 624.955 204.151 624.615 204.773C624.275 205.394 624.097 206.092 624.097 206.801V216.618C624.097 217.737 624.54 218.81 625.329 219.602C626.119 220.393 627.189 220.837 628.305 220.837H729.839C730.955 220.837 732.026 220.393 732.815 219.602C733.604 218.81 734.047 217.737 734.047 216.618Z" fill="#6C63FF"/>
<path opacity="0.2" d="M628.305 216.527H729.839C730.955 216.527 732.026 216.082 732.815 215.291C733.604 214.5 734.047 213.426 734.047 212.307V216.138C734.047 217.257 733.604 218.331 732.815 219.122C732.026 219.913 730.955 220.358 729.839 220.358H628.305C627.189 220.358 626.119 219.913 625.329 219.122C624.54 218.331 624.097 217.257 624.097 216.138V212.307C624.097 213.426 624.54 214.5 625.329 215.291C626.119 216.082 627.189 216.527 628.305 216.527Z" fill="black"/>
<path d="M620.062 249.659C620.062 242.234 614.058 224.615 606.652 224.615C599.246 224.615 593.242 242.234 593.242 249.659C593.242 253.224 594.655 256.644 597.169 259.165C599.684 261.686 603.095 263.102 606.652 263.102C610.208 263.102 613.619 261.686 616.134 259.165C618.649 256.644 620.062 253.224 620.062 249.659Z" fill="#F2F2F2"/>
<path d="M606.652 282.277C606.715 282.277 606.776 282.251 606.821 282.207C606.865 282.162 606.89 282.101 606.891 282.037V233.765C606.891 233.701 606.865 233.64 606.821 233.595C606.776 233.55 606.715 233.525 606.652 233.525C606.588 233.525 606.528 233.55 606.483 233.595C606.438 233.64 606.413 233.701 606.413 233.765V282.037C606.413 282.101 606.438 282.162 606.483 282.207C606.528 282.251 606.588 282.277 606.652 282.277Z" fill="#3F3D56"/>
<path d="M606.652 255.171C606.699 255.171 606.744 255.158 606.783 255.132C606.822 255.106 606.853 255.069 606.871 255.026C606.89 254.983 606.895 254.936 606.887 254.889C606.879 254.843 606.857 254.801 606.825 254.767L600.008 247.595C599.986 247.572 599.96 247.554 599.932 247.541C599.903 247.529 599.872 247.522 599.841 247.521C599.809 247.52 599.778 247.526 599.749 247.537C599.72 247.548 599.693 247.565 599.67 247.587C599.647 247.609 599.629 247.635 599.617 247.664C599.604 247.692 599.597 247.723 599.596 247.755C599.595 247.786 599.601 247.817 599.612 247.847C599.623 247.876 599.64 247.903 599.662 247.926L606.479 255.097C606.501 255.121 606.528 255.139 606.558 255.152C606.587 255.165 606.619 255.171 606.652 255.171Z" fill="#3F3D56"/>
<path d="M606.652 243.08C606.711 243.08 606.769 243.058 606.813 243.018L612.704 237.618C612.727 237.597 612.746 237.571 612.759 237.543C612.773 237.514 612.78 237.483 612.782 237.452C612.783 237.42 612.778 237.389 612.768 237.359C612.757 237.33 612.741 237.302 612.719 237.279C612.698 237.256 612.673 237.237 612.644 237.224C612.616 237.211 612.585 237.203 612.553 237.202C612.522 237.2 612.491 237.205 612.461 237.216C612.432 237.227 612.405 237.243 612.382 237.265L606.49 242.664C606.455 242.697 606.43 242.739 606.419 242.786C606.408 242.833 606.412 242.883 606.429 242.928C606.446 242.973 606.477 243.011 606.517 243.039C606.557 243.066 606.604 243.08 606.652 243.08Z" fill="#3F3D56"/>
<path d="M783.739 234.886C783.739 223.964 774.907 198.046 764.013 198.046C753.118 198.046 744.286 223.964 744.286 234.886C744.286 240.131 746.364 245.161 750.064 248.87C753.763 252.579 758.781 254.662 764.013 254.662C769.244 254.662 774.262 252.579 777.961 248.87C781.661 245.161 783.739 240.131 783.739 234.886Z" fill="#6C63FF"/>
<path d="M764.013 282.756C764.076 282.756 764.137 282.73 764.181 282.685C764.226 282.64 764.251 282.58 764.251 282.516V211.505C764.251 211.441 764.226 211.38 764.181 211.336C764.137 211.291 764.076 211.265 764.013 211.265C763.949 211.265 763.888 211.291 763.844 211.336C763.799 211.38 763.774 211.441 763.774 211.505V282.516C763.774 282.58 763.799 282.64 763.844 282.685C763.888 282.73 763.949 282.756 764.013 282.756Z" fill="#3F3D56"/>
<path d="M764.013 242.882C764.059 242.882 764.105 242.869 764.144 242.843C764.183 242.817 764.214 242.78 764.232 242.737C764.25 242.694 764.256 242.647 764.248 242.6C764.239 242.554 764.218 242.512 764.185 242.478L754.158 231.928C754.114 231.882 754.054 231.856 753.99 231.854C753.927 231.853 753.866 231.876 753.82 231.92C753.774 231.964 753.747 232.024 753.746 232.088C753.744 232.151 753.768 232.213 753.812 232.259L763.84 242.808C763.862 242.832 763.889 242.85 763.918 242.863C763.948 242.876 763.98 242.882 764.013 242.882Z" fill="#3F3D56"/>
<path d="M764.013 225.096C764.072 225.096 764.13 225.074 764.174 225.034L772.84 217.09C772.886 217.047 772.914 216.988 772.917 216.924C772.92 216.861 772.898 216.799 772.855 216.752C772.812 216.705 772.752 216.677 772.689 216.674C772.626 216.671 772.564 216.694 772.517 216.737L763.851 224.68C763.816 224.713 763.791 224.755 763.78 224.802C763.769 224.849 763.772 224.899 763.79 224.944C763.807 224.989 763.838 225.027 763.878 225.054C763.917 225.082 763.964 225.096 764.013 225.096Z" fill="#3F3D56"/>
<path d="M616.019 282.253C615.997 282.271 615.973 282.286 615.95 282.303H596.53C596.15 280.758 596.016 279.211 596.584 277.867C597.394 275.952 599.79 274.757 601.696 275.579C602.147 275.779 602.541 276.091 602.839 276.486C603.583 275.149 604.919 274.142 606.461 274.143C608.392 274.144 609.998 275.728 610.522 277.557C611.366 276.129 613.033 275.131 614.663 275.56C617.388 276.278 618.249 280.526 616.019 282.253Z" fill="#E6E6E6"/>
<path d="M782.852 282.68C782.807 282.716 782.759 282.748 782.712 282.782H743.51C742.742 279.662 742.47 276.539 743.618 273.826C745.253 269.961 750.091 267.548 753.937 269.208C754.849 269.612 755.643 270.242 756.244 271.038C757.747 268.34 760.444 266.307 763.556 266.309C767.456 266.312 770.698 269.508 771.756 273.201C773.459 270.318 776.825 268.303 780.114 269.17C785.615 270.62 787.353 279.193 782.852 282.68Z" fill="#E6E6E6"/>
<path d="M586.001 282.085L789 282.47L788.999 282.949L586 282.564L586.001 282.085Z" fill="#3F3D56"/>
<path d="M720.499 272.34C720.451 272.151 720.444 271.953 720.48 271.761C720.516 271.569 720.594 271.387 720.707 271.228C720.821 271.07 720.968 270.938 721.138 270.842C721.308 270.747 721.497 270.689 721.691 270.675L729.276 261.168L731.152 262.922L723.14 272.003C723.143 272.332 723.025 272.65 722.809 272.898C722.594 273.146 722.295 273.306 721.969 273.347C721.644 273.389 721.314 273.309 721.043 273.124C720.772 272.938 720.579 272.659 720.499 272.34Z" fill="#FFB8B8"/>
<path d="M727.821 262.678L730.218 264.519C730.286 264.571 730.365 264.608 730.448 264.627C730.532 264.646 730.619 264.647 730.703 264.63C730.787 264.612 730.867 264.577 730.936 264.525C731.005 264.474 731.062 264.409 731.104 264.334L732.564 261.695C732.829 261.344 732.945 260.901 732.885 260.465C732.825 260.028 732.595 259.633 732.246 259.366C731.896 259.1 731.455 258.983 731.02 259.041C730.584 259.1 730.189 259.329 729.922 259.679L727.768 261.772C727.706 261.832 727.658 261.905 727.627 261.985C727.596 262.066 727.583 262.152 727.588 262.238C727.593 262.324 727.616 262.407 727.656 262.484C727.697 262.56 727.753 262.626 727.821 262.678Z" fill="#3F3D56"/>
<path d="M731.846 256.939C730.163 256.939 728.798 255.571 728.798 253.884C728.798 252.196 730.163 250.828 731.846 250.828C733.53 250.828 734.894 252.196 734.894 253.884C734.894 255.571 733.53 256.939 731.846 256.939Z" fill="#FFB8B8"/>
<path d="M725.34 293.521H723.818L723.963 290.667H726.209L725.34 293.521Z" fill="#FFB8B8"/>
<path d="M725.728 293.023L722.732 293.023C722.481 293.023 722.232 293.073 722.001 293.169C721.769 293.265 721.559 293.406 721.381 293.584C721.204 293.762 721.063 293.973 720.967 294.205C720.871 294.437 720.822 294.686 720.822 294.938V295L725.728 295L725.728 293.023Z" fill="#2F2E41"/>
<path d="M741.562 291.362L740.267 292.164L738.894 289.658L740.46 288.676L741.562 291.362Z" fill="#FFB8B8"/>
<path d="M741.631 290.734L739.082 292.312C738.868 292.444 738.683 292.617 738.536 292.821C738.39 293.025 738.284 293.256 738.227 293.501C738.169 293.745 738.16 293.999 738.2 294.247C738.24 294.495 738.329 294.733 738.461 294.947L738.493 295L742.667 292.415L741.631 290.734Z" fill="#2F2E41"/>
<path d="M725.45 292.684C725.563 292.684 725.673 292.65 725.766 292.585C725.859 292.521 725.931 292.43 725.971 292.323L731.474 279.132C731.486 279.1 731.506 279.072 731.533 279.05C731.56 279.029 731.592 279.016 731.626 279.011C731.66 279.007 731.695 279.013 731.726 279.027C731.757 279.041 731.784 279.064 731.803 279.092L739.364 291.032C739.438 291.144 739.549 291.224 739.677 291.26C739.806 291.296 739.943 291.285 740.064 291.228L741.098 290.744C741.231 290.681 741.333 290.569 741.384 290.431C741.436 290.294 741.431 290.141 741.371 290.007L735.177 276.165C735.312 275.835 736.632 272.448 734.605 270.774L734.591 270.765L729.094 268.307L728.956 272.534L723.477 291.591C723.456 291.662 723.45 291.737 723.459 291.812C723.468 291.886 723.491 291.957 723.528 292.022C723.565 292.087 723.614 292.144 723.673 292.189C723.732 292.235 723.8 292.268 723.872 292.287L725.307 292.666C725.353 292.678 725.401 292.684 725.45 292.684Z" fill="#2F2E41"/>
<path d="M729.011 262.124C729.22 261.282 729.517 260.433 729.915 260.042C730.061 259.899 730.198 259.747 730.326 259.587C730.593 259.25 730.93 258.973 731.313 258.777C731.173 258.699 731.09 258.605 731.09 258.505C731.09 258.23 731.702 258.007 732.456 258.007C733.209 258.007 733.821 258.23 733.821 258.505C733.819 258.537 733.811 258.568 733.797 258.597C733.783 258.626 733.763 258.652 733.74 258.673C734.232 258.874 734.66 259.207 734.976 259.635C735.293 260.063 735.486 260.57 735.536 261.101C735.712 262.994 735.763 265.414 735.145 266.944C734.627 268.21 734.586 269.622 735.029 270.916C735.06 271.006 735.063 271.102 735.04 271.195C735.017 271.287 734.968 271.37 734.899 271.435C734.83 271.5 734.744 271.544 734.65 271.562C734.557 271.579 734.461 271.569 734.373 271.534L728.919 269.33C728.827 269.293 728.749 269.23 728.693 269.147C728.638 269.065 728.608 268.968 728.608 268.869V265.522C728.604 264.378 728.739 263.236 729.011 262.124Z" fill="#3F3D56"/>
<path d="M739.446 275.907C739.256 275.863 739.078 275.778 738.925 275.657C738.772 275.536 738.647 275.384 738.559 275.209C738.47 275.035 738.422 274.843 738.415 274.648C738.409 274.453 738.446 274.259 738.522 274.079L734.255 262.797L736.419 262.237L740.366 273.403C740.658 273.552 740.886 273.804 741.006 274.11C741.126 274.416 741.129 274.756 741.016 275.065C740.902 275.373 740.68 275.63 740.391 275.785C740.101 275.94 739.765 275.984 739.446 275.907Z" fill="#FFB8B8"/>
<path d="M734.273 264.938L737.007 263.655C737.085 263.618 737.154 263.565 737.21 263.5C737.265 263.434 737.306 263.357 737.329 263.274C737.352 263.191 737.358 263.104 737.344 263.019C737.331 262.934 737.3 262.853 737.252 262.781L735.59 260.265C735.401 259.868 735.063 259.562 734.65 259.414C734.236 259.266 733.781 259.288 733.384 259.476C732.986 259.664 732.68 260.002 732.53 260.416C732.381 260.83 732.402 261.286 732.587 261.685L733.447 264.567C733.471 264.65 733.513 264.726 733.57 264.791C733.627 264.855 733.697 264.907 733.775 264.942C733.853 264.977 733.938 264.995 734.024 264.995C734.11 264.994 734.195 264.975 734.273 264.938Z" fill="#3F3D56"/>
<path d="M729.047 253.131C728.909 253.148 728.77 253.123 728.647 253.059C728.422 252.912 728.444 252.576 728.52 252.318C728.71 251.699 729.052 251.137 729.515 250.685C729.978 250.233 730.547 249.906 731.17 249.733C731.604 249.617 732.153 249.622 732.401 249.997C733.025 249.58 733.777 249.401 734.521 249.493C735.265 249.585 735.952 249.94 736.456 250.496C736.95 251.076 737.278 251.778 737.409 252.53C737.669 253.809 738.784 256.448 738.167 257.597C737.755 258.362 735.863 257.766 735.063 258.099C734.664 258.273 734.229 258.346 733.795 258.31C733.362 258.275 732.944 258.134 732.578 257.898C732.221 257.65 731.952 257.294 731.811 256.882C731.671 256.469 731.667 256.022 731.799 255.607C731.939 255.302 732.101 255.007 732.282 254.725C732.465 254.439 732.539 254.097 732.492 253.761C732.38 253.25 729.974 253.112 729.047 253.131Z" fill="#2F2E41"/>
</g>
<path d="M705.5 272C576.806 224.162 601.322 198.41 598.886 114.814C597.239 58.3119 495 98 445.5 114.814" stroke="black" stroke-width="6"/>
<circle cx="398.5" cy="162.5" r="44.5" stroke="black" stroke-width="6"/>
<path d="M406.285 156.068L409.507 156.9L415.416 146.812L406.285 156.068Z" fill="black"/>
<path fill-rule="evenodd" clip-rule="evenodd" d="M398.537 130.126L405.387 152.54L406.285 156.068L398.537 163.241L398.537 130.126ZM409.175 168.561L432.004 162.709L398.537 163.241L405.27 169.562L409.175 168.561Z" fill="black"/>
<path d="M405.27 169.562L404.537 172.306L415.167 178.624L405.27 169.562Z" fill="black"/>
<path d="M406.285 156.068L405.387 152.54M406.285 156.068L409.507 156.9M406.285 156.068L415.416 146.812M406.285 156.068L398.537 163.241M432.004 162.709L409.507 156.9M432.004 162.709L409.175 168.561M432.004 162.709L398.537 163.241M405.27 169.562L409.175 168.561M405.27 169.562L404.537 172.306M405.27 169.562L415.167 178.624M405.27 169.562L398.537 163.241M405.387 152.54L398.537 130.126L398.537 163.241M405.387 152.54L415.416 146.812M415.416 146.812L409.507 156.9M409.175 168.561L415.167 178.624M415.167 178.624L404.537 172.306M404.537 172.306L398.537 194.777V163.241" stroke="black" stroke-width="0.5"/>
<path d="M392.479 172.306L391.746 169.562L398.479 163.241V194.777L392.479 172.306Z" fill="black"/>
<path fill-rule="evenodd" clip-rule="evenodd" d="M381.849 178.624L391.746 169.562L387.841 168.561L381.849 178.624ZM391.629 152.54L381.6 146.812L390.731 156.068L391.629 152.54Z" fill="black"/>
<path d="M387.509 156.9L390.731 156.068L398.479 163.241L365.012 162.709L387.509 156.9Z" fill="black"/>
<path d="M390.731 156.068L391.629 152.54M390.731 156.068L387.509 156.9M390.731 156.068L381.6 146.812M390.731 156.068L398.479 163.241M365.012 162.709L387.509 156.9M365.012 162.709L387.841 168.561M365.012 162.709L398.479 163.241M391.746 169.562L387.841 168.561M391.746 169.562L392.479 172.306M391.746 169.562L381.849 178.624M391.746 169.562L398.479 163.241M391.629 152.54L398.479 130.126L398.479 163.241M391.629 152.54L381.6 146.812M381.6 146.812L387.509 156.9M387.841 168.561L381.849 178.624M381.849 178.624L392.479 172.306M392.479 172.306L398.479 194.777V163.241" stroke="black" stroke-width="0.5"/>
<path fill-rule="evenodd" clip-rule="evenodd" d="M398.495 163.238L390.7 156.059L364.996 162.717L398.495 163.238Z" fill="#FF5900"/>
<path d="M398.495 163.238L391.689 169.549L364.996 162.717M398.495 163.238L390.7 156.059L364.996 162.717M398.495 163.238L364.996 162.717" stroke="#FF5900" stroke-width="0.5"/>
<g clip-path="url(#clip4_16_246)">
<path d="M96.7126 204.682C105.006 204.682 111.729 197.922 111.729 189.583C111.729 181.245 105.006 174.485 96.7126 174.485C88.4193 174.485 81.6962 181.245 81.6962 189.583C81.6962 197.922 88.4193 204.682 96.7126 204.682Z" fill="#FF6584"/>
<path d="M137.903 200.841C137.937 200.835 137.961 200.811 138 200.817C137.983 200.752 137.961 200.688 137.934 200.626C137.886 200.692 137.838 200.758 137.795 200.817L137.903 200.841Z" fill="white"/>
<path d="M37.1861 225.319C37.2738 228.613 37.8226 231.878 38.8162 235.018C38.839 235.091 38.8628 235.163 38.8865 235.236H44.9701C44.9636 235.171 44.9571 235.098 44.9506 235.018C44.545 230.33 42.2063 201.792 45.0026 196.912C44.7581 197.308 36.7145 210.42 37.1861 225.319Z" fill="#E6E6E6"/>
<path d="M37.6426 235.018C37.6935 235.091 37.7465 235.164 37.8006 235.236H42.3643C42.3297 235.174 42.2897 235.101 42.2432 235.018C41.4892 233.65 39.2576 229.559 37.1861 225.319C34.96 220.762 32.9177 216.031 33.0897 214.32C33.0367 214.706 31.4963 226.476 37.6426 235.018Z" fill="#E6E6E6"/>
<path d="M85.0665 235.803C84.99 238.675 84.5116 241.521 83.6453 244.259C83.6255 244.322 83.6047 244.385 83.584 244.449H78.2803C78.2859 244.392 78.2916 244.328 78.2972 244.259C78.6509 240.171 80.6898 215.292 78.252 211.037C78.4651 211.382 85.4777 222.814 85.0665 235.803Z" fill="#E6E6E6"/>
<path d="M84.6685 244.259C84.6242 244.322 84.578 244.386 84.5308 244.449H80.5521C80.5822 244.395 80.6171 244.331 80.6577 244.259C81.315 243.066 83.2605 239.5 85.0665 235.803C87.0073 231.83 88.7878 227.706 88.6378 226.213C88.684 226.55 90.027 236.812 84.6685 244.259Z" fill="#E6E6E6"/>
<path d="M24.4245 151.255L26.8979 149.266C24.9764 149.053 24.1869 150.107 23.8638 150.941C22.3627 150.314 20.7286 151.135 20.7286 151.135L25.6773 152.942C25.4277 152.271 24.9931 151.686 24.4245 151.255Z" fill="#3F3D56"/>
<path d="M98.92 141.017L101.393 139.028C99.472 138.815 98.6825 139.868 98.3594 140.702C96.8583 140.076 95.2241 140.897 95.2241 140.897L100.173 142.703C99.9232 142.033 99.4886 141.448 98.92 141.017Z" fill="#3F3D56"/>
<path d="M135.311 219.674C135.311 221.322 135.254 222.957 135.14 224.578C134.259 237.368 129.848 249.658 122.403 260.066C121.43 261.431 120.409 262.758 119.339 264.047C116.566 267.391 113.487 270.466 110.143 273.232L95.4839 264.583L86.7194 244.015C86.7194 244.015 99.7963 217.392 135.288 217.875C135.303 218.473 135.31 219.072 135.311 219.674Z" fill="#3F3D56"/>
<path d="M135.14 224.578C134.465 234.136 131.828 243.449 127.394 251.93C122.96 260.411 116.826 267.877 109.379 273.855L95.7609 265.821L87.9883 247.579C87.9883 247.579 100.583 221.939 135.14 224.578Z" fill="#6C63FF"/>
<path d="M122.403 260.066C121.43 261.431 120.409 262.758 119.339 264.047C112.168 272.71 103.005 279.485 92.6434 283.786C90.5453 284.655 88.3979 285.422 86.2012 286.087C70.339 290.328 53.5341 289.255 38.3328 283.031C23.2988 276.284 11.1499 264.369 4.06799 249.425C3.11625 247.413 2.26038 245.35 1.5004 243.236C14.755 233.473 40.8729 219.493 69.3384 233.078C77.2125 236.836 84.2434 240.261 90.4311 243.353C106.133 251.179 116.583 256.821 122.403 260.066Z" fill="#3F3D56"/>
<path d="M119.339 264.047C111.926 272.98 102.398 279.894 91.6317 284.155C80.8652 288.416 69.206 289.886 57.7266 288.429C46.2473 286.973 35.3165 282.638 25.9399 275.822C16.5633 269.006 9.04198 259.929 4.06799 249.425C15.1378 240.623 40.6699 224.806 68.6891 238.175C75.8949 241.614 82.3279 244.748 87.9883 247.579C104.489 255.802 114.654 261.391 119.339 264.047Z" fill="#6C63FF"/>
<path d="M99.8005 280.317C97.4824 281.609 95.0928 282.767 92.6434 283.786C84.3079 287.239 75.3782 289.011 66.3626 289C55.6946 288.996 45.1728 286.505 35.6235 281.723C26.0742 276.941 17.7575 269.998 11.3266 261.44C27.7938 259.694 73.3125 257.34 99.8005 280.317Z" fill="#3F3D56"/>
<path d="M92.6434 283.786C79.7181 289.129 65.484 290.402 51.8236 287.436C38.1633 284.47 25.7203 277.404 16.1403 267.173C22.1299 266.288 69.1544 260.213 92.6434 283.786Z" fill="#6C63FF"/>
<path d="M123.746 181.23V181.232C74.5138 144.632 18.1072 170.393 17.6715 170.591V170.589C24.0649 164.161 31.6566 159.065 40.0118 155.592C48.367 152.119 57.3216 150.337 66.3626 150.348C90.2979 150.348 111.384 162.612 123.746 181.23Z" fill="#E6E6E6"/>
<path d="M21.6203 221.018C29.9488 219.508 34.2167 204.433 31.1528 187.346C28.0889 170.26 18.8535 157.632 10.5249 159.142C2.19639 160.652 -2.07145 175.727 0.992448 192.814C4.05635 209.9 13.2918 222.528 21.6203 221.018Z" fill="#3F3D56"/>
<path d="M23.7607 240.973C23.2669 203.442 10.7781 168.222 10.652 167.871L9.51306 168.284C9.6385 168.634 22.0588 203.669 22.55 240.99L23.7607 240.973Z" fill="#6C63FF"/>
<path d="M1.60298 185.834L1.23035 186.993L16.182 191.855L16.5546 190.696L1.60298 185.834Z" fill="#6C63FF"/>
<path d="M29.7283 184.529L17.4091 194.339L18.161 195.294L30.4801 185.484L29.7283 184.529Z" fill="#6C63FF"/>
<path d="M61.6671 215.607C70.8246 215.607 78.2483 200.377 78.2483 181.59C78.2483 162.802 70.8246 147.572 61.6671 147.572C52.5095 147.572 45.0858 162.802 45.0858 181.59C45.0858 200.377 52.5095 215.607 61.6671 215.607Z" fill="#3F3D56"/>
<path d="M60.1359 237.271C66.7768 197.209 60.2027 157.291 60.1356 156.892L58.8438 157.112C58.9106 157.509 65.447 197.217 58.8434 237.055L60.1359 237.271Z" fill="#6C63FF"/>
<path d="M47.0688 174.275L46.4507 175.437L61.4447 183.501L62.0627 182.339L47.0688 174.275Z" fill="#6C63FF"/>
<path d="M77.2693 178.314L62.2772 186.383L62.8956 187.545L77.8877 179.476L77.2693 178.314Z" fill="#6C63FF"/>
<path d="M133.691 204.665C127.607 201.231 121.251 198.309 114.688 195.929C78.3969 182.725 42.4105 187.814 28.3247 206.711C39.2867 183.561 78.4011 176.282 117.873 190.642C122.467 192.312 126.963 194.244 131.339 196.427C132.293 199.121 133.078 201.872 133.691 204.665Z" fill="#E6E6E6"/>
<path d="M84.6776 167.413L87.151 165.423C85.2295 165.21 84.44 166.264 84.1169 167.098C82.6158 166.471 80.9817 167.293 80.9817 167.293L85.9304 169.099C85.6808 168.429 85.2462 167.843 84.6776 167.413Z" fill="#3F3D56"/>
</g>
<g clip-path="url(#clip5_16_246)">
<path d="M313.522 298.436C311.715 298.434 309.937 298.893 308.357 299.769H318.675C317.099 298.893 315.326 298.434 313.522 298.436Z" fill="#E6E6E6"/>
<path d="M333.545 297.102C330.526 297.099 327.58 298.031 325.113 299.769H341.966C339.502 298.033 336.561 297.101 333.545 297.102Z" fill="#E6E6E6"/>
<path d="M446.965 280.221C446.211 266.563 435.227 255.427 421.568 254.494C415.271 254.052 409.015 255.798 403.859 259.436C398.703 263.074 394.964 268.381 393.276 274.457C392.944 274.445 392.613 274.432 392.279 274.432C386.367 274.433 380.614 276.346 375.881 279.886C371.149 283.425 367.69 288.4 366.023 294.067C362.106 292.347 357.728 291.974 353.576 293.006C349.423 294.038 345.73 296.417 343.076 299.77H428.434C438.921 299.77 447.412 291.092 446.985 280.624C446.979 280.49 446.973 280.355 446.965 280.221Z" fill="#E6E6E6"/>
<path d="M444.748 299.487H205V300.052H444.748V299.487Z" fill="#3F3D56"/>
<path d="M285.013 207.848C285.013 207.848 274.131 204.462 275.802 210.033C277.472 215.605 286.638 212.791 286.638 212.791L285.013 207.848Z" fill="#FFB8B8"/>
<path d="M326.61 186.936C326.61 186.936 321.033 179.323 315.615 187.227C310.186 195.146 305.139 201.647 305.139 201.647L291.656 206.039L283.856 206.73L286.005 213.659L308.684 210.372C308.684 210.372 333.934 195.387 326.61 186.936Z" fill="#2F2E41"/>
<path d="M301.718 229.099C301.718 229.099 293.247 235.024 293.811 240.384C294.376 245.744 298.047 260.414 298.047 260.414L305.672 259.286C305.672 259.286 306.519 248.001 303.695 243.769L317.25 236.152L301.718 229.099Z" fill="#FFB8B8"/>
<path d="M320.497 243.064C320.497 243.064 319.932 253.502 321.344 257.734C322.756 261.966 324.168 277.764 324.168 277.764H332.075C332.075 277.764 335.746 263.941 331.228 257.734C331.228 257.734 329.816 249.553 333.769 245.603L320.497 243.064Z" fill="#FFB8B8"/>
<path d="M318.662 214.147C318.662 214.147 300.306 225.714 300.306 229.381L314.991 241.512L320.074 235.87L319.509 244.334L335.323 247.437C335.323 247.437 340.97 225.996 340.688 225.15C340.406 224.303 339.558 211.89 339.558 211.89L318.662 214.147Z" fill="#2F2E41"/>
<path d="M305.672 257.875L297.482 259.568L298.937 265.544C299.654 268.485 299.735 271.545 299.177 274.52C299.177 274.52 307.648 276.777 307.648 275.649C307.648 274.52 305.672 270.006 306.236 266.903C306.801 263.8 305.672 257.875 305.672 257.875Z" fill="#6C63FF"/>
<path d="M309.908 279.034C309.625 277.905 307.279 272.789 307.181 273.655C307.084 274.52 302.565 275.931 300.871 274.238C300.871 274.238 298.612 272.263 297.765 274.238C296.918 276.213 295.223 279.598 295.223 279.598C295.223 279.598 287.599 283.266 288.728 285.24C288.957 285.64 289.59 285.808 290.454 285.823C290.434 285.875 290.423 285.931 290.423 285.987V286.187C290.423 286.31 290.472 286.428 290.559 286.515C290.646 286.602 290.764 286.651 290.887 286.651H291.088C291.211 286.651 291.329 286.602 291.416 286.515C291.503 286.428 291.552 286.31 291.552 286.187V285.987C291.552 285.915 291.534 285.844 291.501 285.78C291.732 285.76 291.972 285.733 292.218 285.701C292.153 285.782 292.117 285.883 292.117 285.987V286.187C292.117 286.31 292.166 286.428 292.253 286.515C292.34 286.602 292.459 286.651 292.582 286.651H292.782C292.905 286.651 293.023 286.602 293.11 286.515C293.198 286.428 293.247 286.31 293.247 286.187V285.987C293.246 285.904 293.224 285.823 293.182 285.752C293.139 285.681 293.079 285.622 293.006 285.583C293.656 285.474 294.335 285.336 295.009 285.184C294.965 285.256 294.941 285.338 294.941 285.423V285.623C294.941 285.746 294.99 285.864 295.077 285.951C295.164 286.038 295.282 286.087 295.406 286.087H295.606C295.729 286.087 295.847 286.038 295.934 285.951C296.022 285.864 296.07 285.746 296.07 285.623V285.423C296.07 285.333 296.044 285.245 295.995 285.17C295.946 285.095 295.876 285.035 295.794 284.999C296.3 284.876 296.796 284.747 297.268 284.62C297.224 284.692 297.2 284.774 297.2 284.858V285.058C297.2 285.181 297.249 285.3 297.336 285.387C297.423 285.474 297.542 285.523 297.665 285.523H297.865C297.988 285.523 298.106 285.474 298.193 285.387C298.281 285.3 298.33 285.181 298.33 285.058V284.858C298.329 284.76 298.298 284.664 298.239 284.584C298.18 284.505 298.097 284.446 298.003 284.417C299.661 283.951 300.871 283.548 300.871 283.548C300.871 283.548 302.276 283.037 303.977 282.347V282.519C303.977 282.642 304.026 282.76 304.113 282.848C304.201 282.935 304.319 282.984 304.442 282.984H304.642C304.765 282.984 304.884 282.935 304.971 282.848C305.058 282.76 305.107 282.642 305.107 282.519V282.319C305.107 282.249 305.09 282.18 305.059 282.116C305.028 282.053 304.983 281.998 304.927 281.955C305.269 281.812 305.613 281.664 305.954 281.514V281.673C305.954 281.796 306.003 281.914 306.09 282.001C306.177 282.088 306.296 282.137 306.419 282.137H306.619C306.742 282.137 306.86 282.088 306.948 282.001C307.035 281.914 307.084 281.796 307.084 281.673V281.473C307.084 281.398 307.066 281.325 307.031 281.259C306.996 281.192 306.946 281.136 306.885 281.093C307.253 280.921 307.608 280.75 307.935 280.582C307.934 280.597 307.931 280.611 307.931 280.627V280.827C307.931 280.95 307.98 281.068 308.067 281.155C308.154 281.242 308.272 281.291 308.396 281.291H308.596C308.719 281.291 308.837 281.242 308.924 281.155C309.011 281.068 309.06 280.95 309.06 280.827V280.627C309.06 280.52 309.023 280.416 308.956 280.333C308.888 280.25 308.793 280.193 308.688 280.172C309.478 279.714 309.976 279.307 309.908 279.034Z" fill="#2F2E41"/>
<path d="M332.64 276.495L323.694 275.931C323.694 275.931 324.236 285.241 323.152 288.344C322.067 291.447 322.609 292.576 322.609 292.576L330.471 293.14L332.64 276.495Z" fill="#6C63FF"/>
<path d="M332.75 297.071C332.709 295.908 331.482 290.416 331.206 291.242C330.93 292.068 326.217 292.506 324.913 290.498C324.913 290.498 323.116 288.096 321.875 289.851C320.634 291.606 318.271 294.564 318.271 294.564C318.271 294.564 310.048 296.563 310.741 298.729C310.881 299.168 311.465 299.464 312.307 299.659C312.276 299.706 312.254 299.758 312.242 299.812L312.2 300.008C312.175 300.128 312.198 300.254 312.265 300.357C312.332 300.461 312.438 300.533 312.558 300.559L312.754 300.6C312.874 300.626 313 300.603 313.104 300.536C313.207 300.469 313.279 300.364 313.305 300.243L313.347 300.048C313.362 299.977 313.359 299.904 313.34 299.835C313.571 299.863 313.81 299.887 314.058 299.906C313.977 299.972 313.921 300.063 313.899 300.165L313.858 300.361C313.832 300.481 313.855 300.607 313.922 300.71C313.989 300.813 314.095 300.886 314.215 300.912L314.411 300.953C314.531 300.979 314.657 300.956 314.761 300.889C314.864 300.822 314.937 300.716 314.962 300.596L315.004 300.4C315.021 300.32 315.016 300.236 314.99 300.157C314.963 300.079 314.916 300.009 314.853 299.955C315.512 299.984 316.204 299.991 316.895 299.982C316.837 300.043 316.797 300.119 316.779 300.202L316.737 300.397C316.711 300.518 316.735 300.643 316.802 300.747C316.869 300.85 316.974 300.922 317.095 300.948L317.29 300.99C317.411 301.015 317.537 300.992 317.64 300.925C317.744 300.858 317.816 300.753 317.842 300.632L317.884 300.437C317.902 300.349 317.895 300.258 317.863 300.174C317.83 300.09 317.775 300.018 317.702 299.965C318.222 299.95 318.734 299.928 319.222 299.901C319.164 299.962 319.124 300.038 319.106 300.12L319.064 300.316C319.039 300.436 319.062 300.562 319.129 300.665C319.196 300.769 319.301 300.841 319.422 300.867L319.618 300.908C319.738 300.934 319.864 300.911 319.967 300.844C320.071 300.777 320.143 300.672 320.169 300.551L320.211 300.356C320.231 300.259 320.22 300.158 320.179 300.069C320.138 299.979 320.07 299.904 319.983 299.856C321.703 299.745 322.97 299.603 322.97 299.603C322.97 299.603 324.451 299.396 326.259 299.076L326.223 299.244C326.197 299.365 326.22 299.49 326.287 299.594C326.354 299.697 326.46 299.77 326.58 299.795L326.776 299.837C326.896 299.863 327.022 299.839 327.126 299.772C327.229 299.705 327.302 299.6 327.327 299.48L327.369 299.284C327.384 299.215 327.382 299.144 327.365 299.076C327.348 299.008 327.315 298.944 327.269 298.89C327.633 298.821 328.001 298.749 328.366 298.673L328.333 298.828C328.307 298.949 328.33 299.075 328.397 299.178C328.464 299.281 328.57 299.354 328.69 299.379L328.886 299.421C329.006 299.447 329.132 299.423 329.236 299.356C329.339 299.289 329.412 299.184 329.437 299.064L329.479 298.868C329.495 298.795 329.492 298.719 329.472 298.647C329.452 298.576 329.415 298.509 329.364 298.455C329.76 298.364 330.143 298.27 330.498 298.174C330.493 298.188 330.487 298.202 330.484 298.217L330.442 298.412C330.417 298.533 330.44 298.659 330.507 298.762C330.574 298.865 330.68 298.938 330.8 298.963L330.996 299.005C331.116 299.031 331.242 299.007 331.346 298.94C331.449 298.873 331.521 298.768 331.547 298.648L331.589 298.452C331.611 298.347 331.597 298.238 331.548 298.143C331.499 298.048 331.418 297.973 331.32 297.93C332.188 297.646 332.76 297.353 332.75 297.071Z" fill="#2F2E41"/>
<path d="M318.662 177.472C323.184 177.472 326.851 173.809 326.851 169.291C326.851 164.772 323.184 161.109 318.662 161.109C314.139 161.109 310.472 164.772 310.472 169.291C310.472 173.809 314.139 177.472 318.662 177.472Z" fill="#FFB8B8"/>
<path d="M326.004 168.444C326.004 168.444 330.522 174.086 332.781 173.804L322.897 181.422C322.897 181.422 321.768 176.626 320.356 176.061C318.944 175.497 326.004 168.444 326.004 168.444Z" fill="#FFB8B8"/>
<path d="M343.653 210.339C343.653 210.339 343.652 179.208 338.425 176.526C333.201 173.846 329.745 172.317 329.745 172.317C329.668 173.338 329.378 174.332 328.892 175.234C328.407 176.137 327.737 176.927 326.927 177.555C325.195 178.891 323.469 179.998 322.505 180.002L322.474 179.87L322.356 179.535L319.509 183.961C319.509 183.961 316.967 184.525 316.12 186.218C315.662 187.133 317.823 196.352 316.544 204.696C315.458 211.776 310.884 218.166 310.755 218.943C310.536 220.256 316.095 216.815 318.598 215.207C318.635 215.248 318.662 215.276 318.662 215.276C318.662 215.276 317.25 215.84 320.074 214.993C321.674 214.514 323.908 214.487 325.544 214.554C325.542 215.044 325.554 215.434 325.58 215.699C325.863 218.52 339.982 222.47 341.959 221.623C343.935 220.777 343.653 210.339 343.653 210.339Z" fill="#2F2E41"/>
<path d="M333.769 221.059C333.769 221.059 325.298 228.676 330.946 230.087C336.593 231.497 338.852 222.187 338.852 222.187L333.769 221.059Z" fill="#FFB8B8"/>
<path d="M323.886 240.807C323.886 240.807 327.839 237.14 330.098 239.114C332.357 241.089 333.769 242.5 333.769 242.5C333.769 242.5 327.274 238.55 323.886 240.807Z" fill="#6C63FF"/>
<path d="M324.913 284.69C324.913 284.69 327.141 282.623 328.414 283.736C329.688 284.849 330.483 285.644 330.483 285.644C330.483 285.644 326.823 283.418 324.913 284.69Z" fill="#2F2E41"/>
<path d="M299.949 265.462C299.949 265.462 301.478 262.837 303.021 263.531C304.563 264.226 305.556 264.755 305.556 264.755C305.556 264.755 301.405 263.69 299.949 265.462Z" fill="#2F2E41"/>
<path d="M341.519 180.397C338.72 174.776 330.203 177.842 331.587 183.966C331.607 184.057 331.629 184.15 331.651 184.243C333.11 190.04 335.494 195.565 338.711 200.605L335.605 214.429L332.216 221.482L339.276 223.175L348.03 202.016C348.03 202.016 345.615 188.623 341.519 180.397Z" fill="#2F2E41"/>
<path opacity="0.2" d="M337.44 201.029L332.075 221.341L336.593 211.749L337.44 201.029Z" fill="black"/>
<path d="M323.805 159.754C323.805 159.754 319.278 154.993 314.722 157.991C310.165 160.989 308.004 163.902 308.45 165.93C308.897 167.958 310.219 170.779 310.219 170.779C310.219 170.779 309.398 166.578 313.17 166.267C316.943 165.956 322.156 163.461 322.156 163.461L325.682 170.984C325.682 170.984 326.18 169.24 327.562 169.74C328.944 170.24 327.873 160.312 323.805 159.754Z" fill="#2F2E41"/>
<path d="M294.8 267.326C294.799 268.041 294.74 268.754 294.622 269.459V269.462C294.298 271.358 293.546 273.155 292.425 274.719C291.304 276.282 289.842 277.571 288.149 278.487C286.456 279.404 284.577 279.924 282.654 280.009C280.73 280.094 278.813 279.741 277.046 278.977H277.043C276.52 278.752 276.014 278.491 275.527 278.196C274.018 277.286 272.714 276.072 271.699 274.632C270.684 273.192 269.98 271.557 269.63 269.831C269.467 269.006 269.384 268.167 269.385 267.326C269.385 266.942 269.402 266.562 269.436 266.186V266.184C269.729 262.944 271.255 259.94 273.7 257.792C276.145 255.645 279.322 254.516 282.576 254.64C285.83 254.765 288.911 256.132 291.185 258.46C293.459 260.788 294.752 263.899 294.797 267.151V267.154C294.8 267.213 294.8 267.267 294.8 267.326Z" fill="#6C63FF"/>
<path d="M285.22 263.086H279.529L276.683 258.163L278.613 254.82L278.726 254.79C281.17 254.138 283.75 254.21 286.154 254.998L286.256 255.031L288.066 258.163L285.22 263.086ZM279.855 262.522H284.894L287.414 258.163L285.875 255.5C283.642 254.793 281.255 254.725 278.985 255.305L277.335 258.163L279.855 262.522Z" fill="white"/>
<path d="M284.938 273.242H279.247L276.401 268.318L279.247 263.394H284.938L287.784 268.318L284.938 273.242ZM279.573 272.678H284.612L287.132 268.318L284.612 263.958H279.573L277.053 268.318L279.573 272.678Z" fill="white"/>
<path d="M282.092 280.303C280.317 280.307 278.561 279.943 276.933 279.236L276.643 279.11L279.529 274.114H285.22L287.984 278.897L287.71 279.029C285.958 279.872 284.037 280.308 282.092 280.303ZM277.451 278.841C279.003 279.465 280.666 279.77 282.339 279.737C284.013 279.704 285.662 279.334 287.189 278.649L284.894 274.678H279.855L277.451 278.841Z" fill="white"/>
<path d="M294.539 268.164H288.848L286.002 263.241L288.848 258.315H291.439L291.523 258.403C293.77 260.765 295.041 263.889 295.079 267.148V267.229L294.539 268.164ZM289.174 267.6H294.213L294.513 267.08C294.459 264.031 293.277 261.11 291.196 258.879H289.174L286.654 263.241L289.174 267.6Z" fill="white"/>
<path d="M288.769 278.464L286.002 273.679L288.848 268.753H294.539L294.904 269.383L294.9 269.509C294.592 271.306 293.909 273.017 292.895 274.533C291.882 276.049 290.561 277.335 289.018 278.308L288.769 278.464ZM286.654 273.679L288.963 277.671C290.361 276.742 291.557 275.541 292.479 274.139C293.401 272.737 294.029 271.163 294.327 269.512L294.213 269.318H289.174L286.654 273.679Z" fill="white"/>
<path d="M275.627 278.586L275.381 278.437C273.839 277.506 272.507 276.266 271.469 274.794C270.432 273.322 269.711 271.651 269.354 269.887L269.333 269.782L269.928 268.753H275.619L278.465 273.679L275.627 278.586ZM269.929 269.879C270.272 271.499 270.935 273.034 271.879 274.395C272.823 275.755 274.03 276.914 275.428 277.803L277.813 273.679L275.293 269.318H270.254L269.929 269.879Z" fill="white"/>
<path d="M275.619 267.6H269.928L269.153 266.262V266.186C269.432 262.989 270.89 260.01 273.245 257.826L273.326 257.751H275.619L278.465 262.677L275.619 267.6ZM270.254 267.035H275.293L277.813 262.677L275.293 258.315H273.549C271.37 260.369 270.012 263.143 269.725 266.122L270.254 267.035Z" fill="white"/>
</g>
<defs>
<clipPath id="clip0_16_246">
<rect width="301" height="136" fill="white" transform="translate(72)"/>
</clipPath>
<clipPath id="clip1_16_246">
<rect width="106" height="140" fill="white" transform="translate(388 2)"/>
</clipPath>
<clipPath id="clip2_16_246">
<rect width="230" height="161" fill="white" transform="translate(90 139)"/>
</clipPath>
<clipPath id="clip3_16_246">
<rect width="203" height="172" fill="white" transform="matrix(-1 0 0 1 789 123)"/>
</clipPath>
<clipPath id="clip4_16_246">
<rect width="138" height="150" fill="white" transform="translate(0 139)"/>
</clipPath>
<clipPath id="clip5_16_246">
<rect width="242" height="144" fill="white" transform="translate(205 157)"/>
</clipPath>
</defs>
</svg>
